<?xml version="1.0" encoding="utf-8"?>
<!-- Generator: Adobe Illustrator 27.5.0, SVG Export Plug-In . SVG Version: 6.00 Build 0)  -->
<svg version="1.1" id="Layer_1" xmlns="http://www.w3.org/2000/svg" xmlns:xlink="http://www.w3.org/1999/xlink" x="0px" y="0px"
	 viewBox="0 0 300 300" style="enable-background:new 0 0 300 300;" xml:space="preserve">
<style type="text/css">
	.st0{fill:#231F20;}
</style>
<path class="st0" d="M0-0.2v300h300v-300H0z M181.2,244.8c-5,1.3-6.2-2.5-6.2-5v-27.5c0-8.8-3.8-15-7.5-18.8
	c22.5-2.5,46.2-11.2,46.2-48.8c0-11.2-3.7-20-10-26.2c1.2-2.5,5-12.5-1.2-26.2c0,0-8.8-2.5-27.5,10c-7.5-2.5-16.2-3.8-25-3.8
	s-17.5,1.2-25,3.8c-18.8-12.5-27.5-10-27.5-10c-5,12.5-2.5,22.5-1.2,25c-6.2,7.5-10,16.2-10,26.2c0,38.8,23.8,47.5,45,50
	c-2.5,2.5-5,7.5-6.2,13.8c-6.2,2.5-20,7.5-28.8-8.7c0,0-5-10-15-10c0,0-10,0-1.2,6.2c0,0,6.2,2.5,11.2,15c0,0,6.2,17.5,33.8,11.2
	v18.8c0,2.5-1.3,6.2-6.2,5c-40-13.8-68.8-51.2-68.8-95c0-55,45-100,100-100s100,45,100,100C250,193.6,221.3,231.1,181.2,244.8z"/>
</svg>
