<?xml version="1.0" encoding="utf-8"?>
<!-- Generator: Adobe Illustrator 27.5.0, SVG Export Plug-In . SVG Version: 6.00 Build 0)  -->
<svg version="1.1" id="Layer_1" xmlns="http://www.w3.org/2000/svg" xmlns:xlink="http://www.w3.org/1999/xlink" x="0px" y="0px"
	 viewBox="0 0 300 300" style="enable-background:new 0 0 300 300;" xml:space="preserve">
<style type="text/css">
	.st0{fill:#5A483E;}
	.st1{fill:#151C26;}
	.st2{fill:#85634A;}
	.st3{fill:#3679AD;}
	.st4{fill:#FBE9C9;}
	.st5{fill:#4E94C4;}
	.st6{fill:#FFFFFF;}
	.st7{fill:#EFCFA6;}
	.st8{fill:#E1B27E;}
	.st9{fill:#FACE58;}
</style>
<g>
	<path class="st0" d="M272.33,270c-0.48,0.31-0.97,0.47-1.48,0.47c-0.76,0-1.41-0.27-1.96-0.81c-0.55-0.54-0.83-1.25-0.83-2.13
		c0-0.82,0.24-1.52,0.72-2.1c0.48-0.58,1.13-0.87,1.96-0.87c0.53,0,0.99,0.11,1.37,0.33c0.63,0.35,1.02,0.97,1.18,1.85l-1.27-0.02
		c-0.08-0.41-0.24-0.68-0.49-0.82c-0.21-0.13-0.44-0.2-0.68-0.2c-0.37,0-0.68,0.15-0.92,0.46c-0.24,0.31-0.36,0.77-0.36,1.39
		c0,0.62,0.13,1.06,0.4,1.34c0.26,0.28,0.58,0.42,0.95,0.42c0.34,0,0.6-0.09,0.77-0.28c0.17-0.18,0.29-0.42,0.33-0.7h1.24
		C273.12,269.13,272.81,269.68,272.33,270L272.33,270z M267.81,264.62c-0.79,0.81-1.19,1.77-1.19,2.89c0,1.16,0.4,2.14,1.21,2.94
		c0.8,0.81,1.77,1.21,2.91,1.21c1.13,0,2.1-0.41,2.9-1.22c0.8-0.82,1.2-1.79,1.2-2.94c0-1.11-0.4-2.07-1.2-2.89
		c-0.81-0.83-1.77-1.24-2.91-1.24C269.59,263.38,268.61,263.79,267.81,264.62L267.81,264.62z M274.23,271.09
		c-0.97,0.94-2.13,1.41-3.49,1.41c-1.4,0-2.58-0.48-3.54-1.44c-0.96-0.96-1.44-2.14-1.44-3.54c0-1.46,0.52-2.67,1.56-3.63
		c0.97-0.9,2.12-1.35,3.43-1.35c1.38,0,2.55,0.49,3.52,1.46c0.97,0.97,1.46,2.15,1.46,3.52
		C275.72,268.93,275.22,270.12,274.23,271.09z"/>
	<path class="st0" d="M284.88,217.57c-0.02-0.5-0.06-0.98-0.12-1.43c-0.04-0.3-0.09-0.59-0.17-0.88c-0.12-0.67-0.28-1.33-0.5-1.95
		l0-0.01c-0.46-1.3-1.17-2.56-2.08-3.61c-0.91-1.05-2-1.89-3.09-2.46l-0.04-0.02c-1.16-0.61-2.31-0.95-3.34-1.15
		c-0.3-0.06-0.59-0.08-0.87-0.12c1.32-5.68-0.33-10.01-1.41-12.04c0.08-0.08,0.17-0.16,0.25-0.24c1.41-1.37,2.62-2.67,3.63-3.99
		l0.19-0.26c0.81-1.17,1.35-2.36,1.69-3.46c0.29-0.94,0.44-1.8,0.52-2.57l0.01,0l0.01-0.05l0-0.11l0.03-0.24h-0.02l0.01-0.27h0.01
		l0-0.16c0.01-0.16,0.01-0.32,0.01-0.5c0.01-0.32,0.01-0.65-0.01-1.02c-0.08-1.76-0.4-4.04-1.55-6.52c-0.58-1.23-1.37-2.5-2.43-3.68
		c-1.06-1.17-2.37-2.24-3.89-3.09l0.01,0c-0.11-0.06-0.2-0.12-0.3-0.18c-3.14-4.63-6.73-8.22-9.92-10.94
		c-1.65-1.41-3.19-2.59-4.51-3.55c-1.3-0.96-2.4-1.71-3.01-2.16l0.01,0c-1.4-1.03-2.44-1.64-2.94-1.93c-1.15-0.7-2-1.25-2.52-1.64
		c-0.4-0.3-0.6-0.5-0.67-0.58l-0.04-0.05c-0.01-0.01-0.05-0.1-0.11-0.41c-0.06-0.31-0.13-0.84-0.16-1.6
		c-0.05-1.2-0.01-2.96,0.12-5.28c0.21-3.74,0.63-8.89,1.07-15.88c0.15-2.22,0.17-4.31,0.09-6.29c-0.13-3.16-0.54-6.03-1.2-8.63
		l0-0.01c-0.15-0.59-0.31-1.17-0.49-1.74l0,0l0-0.01c-0.13-0.43-0.25-0.75-0.32-0.95l0,0.01c-0.13-0.38-0.27-0.76-0.42-1.14l0-0.02
		c-0.08-0.19-0.17-0.43-0.3-0.72l0-0.01l0,0c-0.24-0.56-0.51-1.17-0.86-1.82l-0.09-0.17l-0.17-0.31l-0.12-0.21
		c-0.64-1.05-1.31-2-2.01-2.89c-0.35-1.61-0.97-3.98-2-6.68c-0.91-2.38-2.13-5.02-3.86-7.62c-0.6-0.9-1.29-1.78-2.03-2.65l0.25-0.26
		c0.35-0.37,8.68-9.09,15.2-20.41c12.15-21.1,8.11-34,2.58-41.1l-0.16-0.2l-0.17-0.19c-5.33-5.93-12.59-9.5-21.56-10.62
		c-18.58-2.31-39.6,6.81-45.11,9.4L175.96,7.26l-0.04-0.04c-0.89-0.97-1.87-1.84-2.92-2.61c-1.06-0.77-2.2-1.43-3.39-1.98
		c-2.39-1.11-5.02-1.81-7.82-2.15c-5.61-0.69-11.9-0.02-18.75,1.73c-10.26,2.65-21.78,7.77-33.83,15
		c-12.04,7.23-24.58,16.56-36.76,27.67C57.58,58.46,45.28,72.82,36.33,86.44c-4.48,6.81-8.12,13.44-10.83,19.73
		c-2.7,6.29-4.48,12.24-5.17,17.75c-0.5,4-0.42,7.78,0.39,11.27c0.35,1.52,0.85,2.99,1.5,4.38c0.83,1.78,1.9,3.44,3.23,4.9
		l0.03,0.04l11.66,12.21l-0.07,0.12c-0.13,0.22-0.24,0.44-0.37,0.67c-0.18,0.33-0.36,0.66-0.53,1c-0.12,0.23-0.23,0.46-0.34,0.69
		c-0.17,0.34-0.33,0.68-0.49,1.03c-0.11,0.23-0.21,0.46-0.31,0.7c-0.15,0.35-0.3,0.7-0.44,1.06c-0.09,0.23-0.18,0.47-0.28,0.71
		c-0.14,0.36-0.26,0.73-0.39,1.09c-0.08,0.24-0.16,0.48-0.24,0.71c-0.12,0.37-0.23,0.75-0.35,1.13c-0.03,0.11-0.07,0.21-0.1,0.31
		c-0.04,0.13-0.07,0.27-0.11,0.4c-0.11,0.39-0.2,0.78-0.3,1.17c-0.06,0.23-0.12,0.47-0.17,0.71c-0.04,0.17-0.07,0.34-0.11,0.52
		c-0.05,0.24-0.09,0.48-0.14,0.73c-0.04,0.22-0.09,0.44-0.13,0.66c-0.09,0.49-0.16,0.99-0.23,1.49c-0.02,0.15-0.05,0.29-0.06,0.44
		l0,0.04l-0.01,0.13c-0.04,0.32-0.07,0.65-0.1,0.98c-0.05,0.51-0.09,1.03-0.12,1.55c-0.02,0.23-0.03,0.46-0.04,0.69
		c-0.01,0.18-0.02,0.35-0.03,0.54c-0.01,0.36,0,0.73-0.01,1.1c0,0.22,0,0.44,0,0.66c0,0.13,0,0.26,0,0.39v0.07
		c0.01,0.24,0.02,0.47,0.02,0.71c0.01,0.26,0.04,0.51,0.05,0.77c0.01,0.19,0.02,0.38,0.03,0.57c0.02,0.17,0.02,0.3,0.04,0.41
		c0.02,0.24,0.04,0.49,0.07,0.73c0.02,0.28,0.06,0.57,0.1,0.91l0,0.03v0c0.02,0.13,0.03,0.22,0.05,0.32
		c0.04,0.27,0.08,0.55,0.12,0.82c0.03,0.24,0.08,0.52,0.13,0.86c0.03,0.14,0.05,0.25,0.07,0.35c0.03,0.17,0.06,0.33,0.1,0.49l0,0.01
		l0,0.02l0.04,0.21c0.04,0.23,0.1,0.51,0.19,0.9c0.02,0.1,0.04,0.17,0.06,0.26c0.06,0.25,0.11,0.43,0.14,0.56l0.06,0.25
		c0.02,0.08,0.04,0.16,0.07,0.27l0.06,0.23l0.05,0.19l0.04,0.17c0.02,0.09,0.04,0.15,0.07,0.23l0.06,0.24
		c0.06,0.19,0.12,0.37,0.17,0.55c0.07,0.22,0.15,0.5,0.28,0.89l-0.02-0.06l0.02,0.07c0.03,0.09,0.05,0.15,0.08,0.23
		c0.11,0.32,0.2,0.56,0.24,0.69l0.01,0.01v0c0.07,0.21,0.18,0.52,0.33,0.91l0,0.01l0,0.01l0-0.01l0.01,0.04l-0.01-0.02l0.07,0.16
		c0.1,0.25,0.17,0.44,0.24,0.58l0.08,0.19l0.01,0.03c0.04,0.09,0.09,0.22,0.15,0.37c0.06,0.14,0.13,0.3,0.21,0.49l-0.01-0.02
		l0.08,0.18c0.08,0.17,0.15,0.33,0.21,0.46c0.06,0.13,0.11,0.24,0.16,0.33l-0.01-0.02l0.01,0.02l0.01,0.02l-0.01-0.02
		c0.1,0.2,0.22,0.47,0.38,0.79l0.01,0.03l0.01,0.02l0.07,0.14c0.07,0.13,0.14,0.26,0.2,0.38c0.09,0.16,0.16,0.3,0.22,0.42l0.01,0.03
		c0.09,0.16,0.22,0.4,0.39,0.71l0.01,0.02l0.01,0.02l0.07,0.12c0.07,0.12,0.14,0.24,0.2,0.35c0.11,0.18,0.21,0.35,0.29,0.49
		l0.02,0.04l0,0.01c0.08,0.13,0.21,0.35,0.39,0.63l0.02,0.03l0.05,0.08c0.09,0.14,0.17,0.27,0.25,0.39
		c0.13,0.19,0.24,0.36,0.34,0.51l-0.02-0.02c0.11,0.16,0.25,0.38,0.45,0.66l0.02,0.02l0.01,0.02l-0.02-0.03l0.02,0.03l0.02,0.02l0,0
		l0.01,0.01l0,0c0.09,0.13,0.19,0.26,0.28,0.4c0.13,0.18,0.26,0.35,0.37,0.5l-0.01-0.01c0.11,0.14,0.24,0.32,0.4,0.54l0.04,0.05
		c0.12,0.16,0.24,0.3,0.35,0.45c0.15,0.18,0.29,0.36,0.42,0.52l0.04,0.06c0.09,0.11,0.19,0.24,0.33,0.4l0.06,0.07l0,0l0.02,0.03
		l0.04,0.04c0.21,0.25,0.4,0.46,0.59,0.67l0.2,0.23l0,0l0.01,0.01l0.02,0.02l0,0c0.09,0.1,0.21,0.24,0.35,0.39l0.04,0.05l0,0
		l0.01,0.01l0.03,0.03l-0.01-0.01c0.23,0.25,0.45,0.47,0.68,0.7c0.09,0.09,0.18,0.2,0.28,0.29l0.01,0.01
		c0.05,0.05,0.16,0.16,0.33,0.34l0.03,0.03l0.1,0.11c0.27,0.26,0.55,0.52,0.83,0.78l0.06,0.06l0.02,0.01l0.01,0.01l0.01,0.01
		c0.07,0.06,0.19,0.17,0.35,0.32l0.02,0.02c0.36,0.32,0.72,0.63,1.08,0.92l0.02,0.02l0.2,0.17l0.14,0.11l0,0l0.21,0.16
		c0.3,0.24,0.6,0.48,0.89,0.7l0.08,0.06l0.04,0.03c0.11,0.08,0.19,0.14,0.24,0.18l0.06,0.04l0.04,0.03
		c0.08,0.06,0.17,0.12,0.25,0.18c0.25,0.18,0.51,0.36,0.76,0.54l0.22,0.15l0.02,0.02l0.27,0.18l0.01,0l0.14,0.09
		c0.26,0.17,0.54,0.35,0.81,0.52c0.14,0.09,0.28,0.18,0.43,0.27l0.23,0.14l0.13,0.08l0.09,0.05c0.43,0.26,0.83,0.49,1.19,0.69
		l0.04,0.02l0.23,0.12l0.02,0.01c0.51,0.27,0.99,0.52,1.45,0.75l0.08,0.04l0.25,0.12l0,0c0.25,0.12,0.49,0.22,0.73,0.33
		c0.11,0.05,0.23,0.11,0.35,0.16c0.14,0.06,0.28,0.14,0.42,0.19l0.12,0.05l0.03,0.01l0.06,0.02c0.24,0.1,0.47,0.19,0.7,0.28
		l0.12,0.04c0.26,0.11,0.53,0.22,0.79,0.32l0.06,0.02l0.19,0.07c0.12,0.04,0.25,0.08,0.37,0.13l0.12,0.04
		c0.38,0.13,0.75,0.27,1.14,0.39l0.09,0.03l0.03,0.01l0.01,0.01c0.59,0.18,1.18,0.35,1.76,0.51l0.02,0.01l0.1,0.02l-0.03-0.01
		c0.52,0.14,1.03,0.25,1.54,0.37h0.01l0.19,0.05l0.2,0.04c0.48,0.11,0.97,0.19,1.47,0.28l0.14,0.04l0.35,0.05
		c0.3,0.05,0.6,0.09,0.89,0.13c0.05,0.12,0.09,0.24,0.13,0.35l0,0.02c0.81,2.22,1.7,4.43,2.64,6.63
		c13.98,38.69,52.62,68.67,96.72,74.16c44.1,5.48,91.17-23.83,110.35-63.43c0.83-1.51,1.58-3,2.27-4.44
		c1.9-1.96,3.38-3.99,4.36-6.14C284.6,222.42,284.99,219.75,284.88,217.57"/>
	<path class="st0" d="M246.1,104.04l0,0.01l0,0L246.1,104.04z"/>
	<path class="st0" d="M51.51,212.34L51.51,212.34L51.51,212.34L51.51,212.34z"/>
	<path class="st0" d="M39.03,200.64L39.03,200.64L39.03,200.64L39.03,200.64z"/>
	<path class="st0" d="M39.03,200.65L39.03,200.65L39.03,200.65L39.03,200.65z"/>
	<path class="st0" d="M33.19,188.27l0-0.02l0,0L33.19,188.27z"/>
	<path class="st0" d="M32.69,186.31L32.69,186.31L32.69,186.31L32.69,186.31z"/>
	<path class="st0" d="M40.16,202.2l0.01,0.02L40.16,202.2l-0.02-0.02L40.16,202.2z"/>
</g>
<path class="st1" d="M247.16,24.24c-2.14-2.37-4.61-4.16-7.29-5.49c-0.5-0.18-0.99-0.37-1.5-0.51c-0.25-0.17-0.5-0.32-0.76-0.47
	c-2.37-0.91-4.88-1.5-7.47-1.83c-12.81-1.65-27.4,3.02-35.74,6.33c-0.46,0.19-0.92,0.38-1.38,0.58c-0.7,0.3-1.41,0.6-2.12,0.92
	c-1.2,0.53-2.42,1.08-3.66,1.66c-0.18,0.08-0.36,0.17-0.54,0.25l-3.29-3.82l-0.94-1.1l-0.41-0.48l-8.6-9.98l-0.75-0.87l-0.92-1.07
	l-0.16,0.04l-2.43,0.55l-2.81,0.64c-1.55-0.72-3.4-1.23-5.53-1.5c-4.28-0.54-9.71-0.04-15.89,1.56c-6.19,1.59-13.12,4.26-20.48,7.92
	c-14.71,7.32-31.09,18.61-46.85,32.98C72.13,55.57,67,60.69,62.28,65.83c-4.58,4.99-8.77,9.99-12.53,14.92
	c-7.63,10.02-13.48,19.76-17.22,28.45c-2.49,5.79-4.04,11.11-4.6,15.66c-0.42,3.31-0.31,6.21,0.25,8.6
	c0.18,0.77,0.42,1.48,0.69,2.15c0.56,1.41,1.29,2.63,2.24,3.68l9.54,9.99l1.02,1.07l0.07-0.07c0.29-0.34,0.59-0.67,0.89-1l0.08-0.09
	c0.11-0.12,0.22-0.23,0.33-0.34c0.29-0.3,0.58-0.6,0.87-0.89c0.18-0.18,0.37-0.35,0.56-0.53c0.18-0.17,0.36-0.35,0.54-0.52
	c0.08-0.08,0.17-0.15,0.25-0.22c0.19-0.18,0.39-0.35,0.6-0.52c0.28-0.24,0.56-0.48,0.85-0.71c0.17-0.14,0.34-0.27,0.51-0.41
	l0.07-0.06c0.3-0.24,0.61-0.47,0.92-0.7c0.19-0.15,0.39-0.29,0.58-0.43c0.32-0.23,0.64-0.45,0.97-0.67c0.2-0.13,0.39-0.26,0.59-0.39
	c0.33-0.22,0.68-0.43,1.02-0.64c0.2-0.12,0.39-0.24,0.59-0.36c0.36-0.21,0.72-0.41,1.08-0.61c0.19-0.1,0.38-0.21,0.58-0.31
	l0.22-0.11l0.03-0.02c0.31-0.16,0.62-0.3,0.93-0.45c0.17-0.08,0.34-0.17,0.52-0.25c0.26-0.12,0.53-0.24,0.79-0.35
	c0.23-0.1,0.46-0.2,0.69-0.3l0.26-0.11c0.59-0.24,1.18-0.47,1.78-0.68c0.19-0.07,0.39-0.13,0.58-0.19c0.21-0.07,0.41-0.14,0.62-0.2
	l0.24-0.08c0.12-0.04,0.25-0.08,0.37-0.12c0.26-0.08,0.52-0.14,0.77-0.22l0.19-0.05c0.3-0.08,0.59-0.17,0.89-0.24
	c0.28-0.07,0.56-0.13,0.84-0.2c0.35-0.08,0.7-0.16,1.05-0.23c0.15-0.03,0.29-0.06,0.44-0.09c0.15-0.03,0.3-0.05,0.45-0.08
	c0.34-0.06,0.69-0.12,1.04-0.17c0.31-0.05,0.61-0.09,0.92-0.13c0.25-0.03,0.49-0.06,0.74-0.09c0.1-0.01,0.2-0.02,0.3-0.03
	c0.11-0.01,0.22-0.03,0.33-0.04l0.18-0.01c1.22-0.05,2.56-0.04,4.02,0.07l0.22,0.01c1.48,0.12,3.07,0.36,4.75,0.71
	c0.4,0.09,0.8,0.17,1.21,0.27c0.09-0.16,0.17-0.32,0.26-0.48c0.89-1.59,1.79-3.15,2.7-4.67c5.31-8.9,11.01-16.69,16.82-23.47
	c1.98-2.32,3.98-4.52,5.98-6.62c8.34-8.71,16.73-15.49,24.4-20.73c1.7-1.16,3.37-2.25,5-3.27c2.21-1.38,4.34-2.63,6.37-3.75
	c1.65-0.91,3.23-1.75,4.74-2.5c2.5-1.26,4.78-2.3,6.79-3.16c0.62-0.27,1.22-0.52,1.78-0.74c0.88-0.36,1.69-0.67,2.42-0.95
	c-0.63-0.07-1.27-0.12-1.93-0.15c-0.61-0.03-1.23-0.04-1.86-0.04c-0.16,0-0.31,0-0.47,0c-0.63,0.01-1.27,0.02-1.92,0.06
	c-1.23,0.07-2.48,0.2-3.77,0.4c-0.43,0.07-0.86,0.14-1.3,0.23c3.19-1.65,6.34-2.89,9.38-3.83c2.02-0.62,3.99-1.11,5.89-1.48
	c2.61-0.5,5.08-0.8,7.36-0.95c1.53-0.1,2.97-0.13,4.3-0.12c1.34,0.01,2.57,0.07,3.68,0.15c3.87,0.29,6.21,0.88,6.21,0.88
	c-0.55-0.77-1.24-1.45-1.99-2.04c-1.37-1.06-2.95-1.82-4.33-2.36c-0.54-0.21-1.06-0.4-1.52-0.54c-0.36-0.11-0.7-0.21-0.98-0.29
	c0.65-0.11,1.3-0.21,1.93-0.29c0.67-0.09,1.34-0.17,2-0.23c5.58-0.52,10.46-0.04,14.13,0.64c4.42,0.82,7.08,1.93,7.08,1.93
	c-0.63-1.23-1.56-2.28-2.59-3.16c-0.75-0.64-1.53-1.2-2.29-1.67c1.48,0.34,2.89,0.72,4.23,1.13c3.54,1.08,6.54,2.34,8.91,3.48
	c0.77,0.37,1.47,0.73,2.1,1.06c0.18,0.1,0.34,0.19,0.51,0.28c2.16,1.18,3.36,2.03,3.36,2.03c-0.36-1.27-1.1-2.48-1.95-3.56
	c-0.22-0.27-0.43-0.54-0.66-0.79l0.1,0.05c0.08,0.03,0.25,0.08,0.49,0.16c0.17,0.06,0.38,0.13,0.63,0.22
	c0.94,0.34,2.38,0.92,4.08,1.76c0.08,0.04,0.16,0.08,0.25,0.12c0.23,0.12,0.46,0.24,0.7,0.36c0.58,0.31,1.18,0.65,1.8,1.01
	c0.57,0.34,1.15,0.71,1.74,1.1c0.3,0.2,0.6,0.41,0.91,0.63c0.65,0.46,1.29,0.96,1.92,1.49c0.65,0.54,1.29,1.13,1.91,1.75
	c0.12,0.12,0.25,0.24,0.37,0.37c0.45,0.47,0.89,0.96,1.31,1.47c0.8,0.96,1.55,2,2.21,3.11c0.79,1.34,1.47,2.78,1.97,4.35
	c0.03,0.09,0.05,0.18,0.08,0.27c0.37-0.39,1.01-1.1,1.85-2.06C239.01,66.09,259.51,40.1,247.16,24.24"/>
<path class="st2" d="M277.8,218.39L277.8,218.39c0,0,0.24-1.8-0.71-3.41l-0.02-0.04c-0.06-0.1-0.11-0.18-0.17-0.27l-0.06-0.09
	c-0.1-0.14-0.23-0.28-0.36-0.41c-0.23-0.24-0.5-0.47-0.83-0.68c-0.17-0.11-0.35-0.21-0.55-0.31c-0.54-0.26-1.19-0.45-1.95-0.57
	c-0.56-0.08-1.2-0.11-1.9-0.08c-0.28,0.01-0.56,0.02-0.87,0.04l-0.14,0.01c0,0,0.02,0.07,0.05,0.19c0.03,0.12,0.08,0.29,0.14,0.51
	c0.02,0.09,0.04,0.18,0.07,0.28c0.1,0.4,0.22,0.9,0.34,1.48c0,0-0.04,0.12-0.13,0.32l-0.05,0.11c-0.35,0.81-1.3,2.69-3.42,5.13
	c-0.36,0.41-0.76,0.85-1.19,1.3c-5.91,6.11-18.7,14.8-45.62,19.67c-9.13,1.29-17.55,1.36-24.74,0.46
	c-10.63-1.32-18.6-4.72-22.31-9.29c-0.32-0.39-0.62-0.8-0.9-1.2c-0.21-0.3-0.41-0.61-0.59-0.91c-0.07-0.11-0.13-0.23-0.19-0.34
	c-1.59-2.82-2.29-5.89-2.25-8.86c0.05-3.61,1.18-7.06,3.08-9.72c1.55-2.15,3.6-3.78,6.01-4.53c1.18-0.37,2.44-0.53,3.76-0.44
	c0.27,0.02,0.62,0.06,1.06,0.11c0.88,0.11,2.12,0.28,3.63,0.48c0.17,0.02,0.33,0.04,0.5,0.06c5.05,0.63,13.09,1.39,22.82,0.79
	c17.69-1.08,40.98-6.65,62.13-25.72l0.06-0.07v-0.03c0.07-1.6-0.14-4.48-2.16-6.73c-0.35-0.39-0.76-0.76-1.23-1.11
	c-0.27-0.2-0.55-0.38-0.86-0.56c-0.31-0.17-0.59-0.35-0.87-0.52c-0.37-0.24-0.73-0.47-1.04-0.7l-0.05-0.07
	c-0.14-0.22-0.3-0.44-0.44-0.66c-5.49-8.31-13.04-13.13-16.06-15.34c-1.42-1.04-2.33-1.52-2.33-1.52
	c-6.53-3.98-7.48-5.29-6.87-16.09c0.22-3.89,0.64-9,1.07-15.92c0.06-0.9,0.09-1.76,0.1-2.6c0-0.2,0.01-0.4,0.01-0.59
	c0.01-0.8,0-1.57-0.03-2.32l-0.01-0.21l-0.02-0.23c-0.03-0.59-0.07-1.16-0.12-1.71c-0.02-0.24-0.05-0.49-0.07-0.73
	c-0.06-0.59-0.14-1.17-0.23-1.72c-0.05-0.28-0.1-0.56-0.15-0.83c-0.06-0.31-0.12-0.61-0.19-0.91c-0.06-0.29-0.13-0.59-0.2-0.87l0,0
	l0,0v0c-0.09-0.35-0.19-0.68-0.28-1.01c-0.04-0.12-0.06-0.25-0.1-0.36c-0.04-0.11-0.08-0.21-0.11-0.32l-0.04-0.11l-0.11-0.32l0-0.02
	c-0.09-0.26-0.19-0.5-0.28-0.75l-0.03-0.08l-0.09-0.23l-0.11-0.28l-0.03-0.05v-0.01c-0.2-0.46-0.4-0.9-0.62-1.32l-0.17-0.31
	c-0.25-0.41-0.5-0.79-0.76-1.16l-0.1-0.15l-0.13-0.17c-0.19-0.25-0.37-0.5-0.56-0.74l-0.26-0.32c-0.25-0.3-0.5-0.58-0.75-0.85v0
	l-0.01-0.04l-0.01-0.05l-0.01-0.07l-0.02-0.1l-0.02-0.1l-0.03-0.17l-0.02-0.1l-0.05-0.23l-0.02-0.08c-0.09-0.44-0.21-1.02-0.38-1.7
	l-0.01-0.05c-0.04-0.16-0.09-0.34-0.13-0.52l-0.02-0.07c-0.05-0.19-0.1-0.37-0.15-0.57l-0.01-0.01c-0.13-0.46-0.28-0.95-0.44-1.46
	c-0.05-0.17-0.11-0.34-0.17-0.51c-0.12-0.36-0.24-0.72-0.38-1.09c-0.08-0.21-0.16-0.43-0.25-0.65c-0.13-0.35-0.27-0.69-0.43-1.05
	c-0.1-0.23-0.21-0.46-0.31-0.7c-0.16-0.35-0.32-0.7-0.5-1.05c-0.12-0.24-0.24-0.48-0.36-0.72c-0.19-0.36-0.39-0.71-0.6-1.06
	c-0.13-0.23-0.27-0.45-0.4-0.68c-0.24-0.38-0.49-0.75-0.75-1.12c-0.13-0.18-0.25-0.37-0.39-0.56c-0.12-0.16-0.26-0.31-0.38-0.46
	c-0.3-0.38-0.59-0.76-0.92-1.12l-0.04-0.04l-0.19-0.18c-0.42-0.45-0.86-0.89-1.33-1.29l-0.09-0.07c-0.21-0.18-0.43-0.35-0.64-0.51
	l-0.02-0.02l-0.08-0.06c-0.19-0.14-0.38-0.28-0.58-0.41l-0.1-0.07l0.04,0.04c-0.21-0.15-0.58-0.35-1.08-0.57
	c-0.17-0.07-0.36-0.16-0.56-0.24c-1.02-0.41-2.4-0.87-4.03-1.3c-0.1-0.03-0.21-0.05-0.31-0.08c-1.36-0.35-2.86-0.68-4.46-0.93
	c-0.54-0.09-1.08-0.16-1.64-0.23c-0.26-0.03-0.53-0.05-0.79-0.07c-0.11-0.01-0.22-0.02-0.32-0.03c-1.25-0.12-2.53-0.2-3.81-0.19
	l-0.08,0c-1.65,0.02-3.3,0.15-4.88,0.46c0.37-0.61,1.37-1.29,2.38-1.86c1.25-0.71,2.5-1.23,2.5-1.23c-0.71,0.05-1.45,0.15-2.18,0.27
	c-0.24,0.04-0.47,0.07-0.71,0.11c-0.15,0.03-0.31,0.06-0.46,0.09l-0.13,0.03c-0.13,0.03-0.25,0.05-0.38,0.08
	c-3.68,0.78-7.22,2.11-9.19,2.91c-0.28,0.11-0.52,0.22-0.74,0.31l-0.12,0.05c-0.2,0.02-0.4,0.05-0.59,0.08l0-0.01
	c1.45-2.68,3.59-4.13,5.22-4.89c0.28-0.13,0.56-0.25,0.8-0.35c0.09-0.04,0.17-0.06,0.25-0.09c0.24-0.08,0.44-0.15,0.61-0.2
	c0.39-0.11,0.64-0.16,0.64-0.16c-0.17,0-0.34,0.03-0.51,0.04c-0.15,0.01-0.29,0.02-0.43,0.03c-0.21,0.02-0.43,0.03-0.64,0.05
	c-0.13,0.01-0.26,0.02-0.38,0.03c-4.07,0.44-7.68,1.82-10.78,3.53c-2.14,1.18-4.04,2.52-5.63,3.83c-0.43,0.09-0.86,0.18-1.31,0.27
	c-4.45,0.95-9.53,2.17-14.87,3.81c-1.97,0.61-3.98,1.27-6.01,1.99c-1.58,0.57-3.17,1.18-4.76,1.83c-1.14,0.46-2.28,0.95-3.42,1.46
	c-8.2,3.66-16.28,8.52-23.07,15.04c-0.24,0.24-0.5,0.46-0.74,0.69c-0.59,0.59-1.16,1.2-1.73,1.82c-0.23,0.25-0.48,0.49-0.71,0.74
	c-0.29,0.32-0.55,0.66-0.83,0.98c-1.27,1.47-2.48,3-3.61,4.63c-0.84,1.21-1.63,2.46-2.38,3.75l-0.09,0.15
	c-1.56,2.7-2.91,5.59-4.04,8.69c-0.56,1.55-1.07,3.15-1.51,4.8c-0.12,0.44-0.23,0.88-0.34,1.32l-0.06,0.23
	c-0.43,1.8-0.77,3.66-1.05,5.58c-0.05,0.38-0.11,0.75-0.16,1.14c-0.12,0.96-0.22,1.94-0.3,2.93c-0.07,0.91-0.13,1.82-0.17,2.75
	l-0.01,0.21c-0.02,0.45-0.04,0.91-0.05,1.37c-0.01,0.53-0.01,1.06-0.01,1.6c0,0.13,0,0.25,0,0.38c0,1.05,0.02,2.1,0.07,3.18
	l0.01,0.17c0.05,1.07,0.12,2.17,0.22,3.27c0.04,0.46,0.08,0.92,0.12,1.38c0.01,0.11,0.02,0.23,0.03,0.34
	c0.03,0.26,0.06,0.52,0.09,0.78c0.14,1.22,0.3,2.46,0.49,3.72c0.05,0.35,0.1,0.7,0.15,1.05c0.18,1.1,0.37,2.21,0.59,3.34
	c0,0-0.2-1.45-0.07-3.58c0.03-0.49,0.08-1.02,0.14-1.57c0.15-1.21,0.41-2.55,0.85-3.92c0.11-0.34,0.23-0.68,0.36-1.02
	c0.05-0.15,0.12-0.3,0.18-0.44c0.26-0.63,0.55-1.26,0.91-1.89c0.08,0.45,0.17,0.89,0.26,1.34l0.03,0.15l0,0.2
	c0,0.28-0.01,0.57-0.01,0.89c0,0.68,0,1.45,0,2.29c0.01,0.84,0.02,1.74,0.06,2.7c0.12,4.01,0.47,8.85,1.33,12.98
	c0,0,0.16-7.5,1.43-8.35c0,0,2.22,13.89,4.28,19.14c0.27,0.68,0.53,1.22,0.79,1.56l-0.05-1.38l-0.29-7.72c0,0,0.01-0.29,0.04-0.79
	c1.54,3.16,3.3,6.42,5.29,9.76c0.55,0.92,1.11,1.85,1.7,2.79c-3.82,3.36-7.35,8.11-9.88,13.79c-0.4,0.91-0.78,1.84-1.14,2.79
	c-0.2,0.54-0.39,1.1-0.57,1.65c-0.06,0.17-0.11,0.35-0.17,0.53c-0.12,0.39-0.24,0.78-0.35,1.18c-0.06,0.2-0.11,0.41-0.17,0.61
	c-0.11,0.4-0.21,0.8-0.3,1.2c-0.05,0.19-0.09,0.38-0.13,0.57c-0.13,0.58-0.25,1.16-0.36,1.75l-0.01,0.05
	c-0.11,0.59-0.2,1.19-0.28,1.79c-0.03,0.19-0.05,0.39-0.07,0.58c-0.06,0.43-0.1,0.86-0.15,1.29c-0.02,0.22-0.04,0.44-0.06,0.66
	c-0.04,0.43-0.06,0.88-0.09,1.31c-0.01,0.2-0.02,0.4-0.03,0.6c-0.03,0.63-0.04,1.27-0.04,1.92l0,0.08c0,0.5,0.01,0.99,0.03,1.49
	c0.02,0.5,0.05,1,0.09,1.51l0.01,0.2l0.01,0.13c0.05,0.61,0.11,1.23,0.19,1.85c0.02,0.2,0.06,0.39,0.08,0.59
	c0.06,0.42,0.11,0.85,0.19,1.28c0.04,0.24,0.08,0.48,0.13,0.71c0.07,0.39,0.15,0.78,0.23,1.17c0.05,0.25,0.11,0.5,0.17,0.76
	c0.09,0.38,0.18,0.76,0.28,1.15c0.06,0.26,0.13,0.51,0.2,0.77c0.11,0.38,0.21,0.77,0.33,1.16c0.08,0.25,0.15,0.51,0.23,0.76
	c0.13,0.4,0.27,0.8,0.4,1.2c0.09,0.24,0.16,0.48,0.25,0.72c0.16,0.44,0.34,0.89,0.52,1.33c0.08,0.2,0.15,0.4,0.24,0.6
	c0.54,1.29,1.14,2.58,1.8,3.87c0.1,0.19,0.21,0.38,0.31,0.58c0.24,0.45,0.49,0.91,0.75,1.36c0.14,0.24,0.28,0.47,0.42,0.71
	c0.24,0.41,0.49,0.82,0.75,1.23c0.16,0.25,0.32,0.51,0.49,0.76c0.26,0.39,0.52,0.79,0.79,1.18c0.18,0.26,0.36,0.52,0.54,0.78
	c0.28,0.39,0.56,0.78,0.86,1.17c0.19,0.26,0.38,0.51,0.58,0.77c0.31,0.4,0.63,0.8,0.95,1.2c0.19,0.24,0.39,0.49,0.59,0.73
	c0.36,0.43,0.74,0.87,1.13,1.3c0.18,0.21,0.35,0.41,0.53,0.61c0.57,0.64,1.16,1.27,1.78,1.91l0,0c0-0.01-0.36-0.52-0.84-1.41
	l-0.02-0.03c-0.09-0.17-0.18-0.35-0.28-0.55l-0.03-0.05c-0.1-0.2-0.2-0.42-0.31-0.65l-0.02-0.04c-0.11-0.24-0.23-0.5-0.34-0.78
	c-0.91-2.18-1.78-5.19-1.67-8.56c0.35,0.47,0.71,0.92,1.06,1.38c0.41,0.84,0.94,1.88,1.55,3.05c0.21,0.39,0.42,0.79,0.64,1.21
	c0.9,1.66,1.94,3.5,3.08,5.34c1.36,2.21,2.86,4.42,4.41,6.33l0,0c-0.01-0.01-1.8-3.76-2.4-6.22c-0.17-0.69-0.25-1.29-0.16-1.66
	c0.15,0.15,0.29,0.3,0.43,0.45c0.14,0.15,0.29,0.3,0.44,0.45c0.29,0.38,0.65,0.86,1.05,1.39l0.2,0.27c0.2,0.26,0.41,0.54,0.63,0.83
	l0.01,0.02c0.26,0.34,0.53,0.68,0.81,1.05c2.53,3.25,5.89,7.4,8.29,9.68c0.8,0.76,1.49,1.31,2.01,1.55l-3.46-6.2
	c7.83,6.37,40.15,14.56,71.98,5.42c3.84-1.1,7.68-2.46,11.46-4.1c2.29-0.99,4.55-2.07,6.79-3.28l0.32-0.18
	c1.57-0.86,3.12-1.78,4.66-2.75l0.03-0.02c1.16-0.73,2.31-1.49,3.44-2.28c1.9-1.34,3.78-2.75,5.62-4.28l0,0l0.01-0.01
	c0.11-0.09,0.21-0.18,0.32-0.28c1.82-1.59,3.52-3.22,5.1-4.89c2.09-2.2,3.97-4.44,5.66-6.7l0.13-0.16c0.41-0.56,0.82-1.11,1.22-1.66
	l0.11-0.16c0.13-0.19,0.24-0.37,0.37-0.55c0.55-0.79,1.09-1.58,1.6-2.36c0.12-0.19,0.25-0.38,0.37-0.57
	c0.26-0.42,0.52-0.83,0.77-1.24c0.19-0.32,0.39-0.64,0.57-0.96c0.21-0.35,0.41-0.7,0.62-1.04c0.36-0.63,0.7-1.25,1.04-1.87
	c0.13-0.25,0.26-0.48,0.38-0.73c0.25-0.48,0.5-0.96,0.74-1.43c0.11-0.22,0.22-0.44,0.33-0.66l0.1-0.21c0.3-0.59,0.58-1.19,0.85-1.77
	l0.05-0.12c1.02-0.96,1.82-1.86,2.46-2.73c0.09-0.12,0.19-0.25,0.27-0.37C277.3,221.83,277.77,220.02,277.8,218.39"/>
<path class="st2" d="M87.62,195.38c-0.03-0.15-0.05-0.29-0.08-0.43l0.02-0.01c-0.37-2.05-0.65-4.15-0.86-6.3
	c-0.01-0.15-0.03-0.3-0.05-0.45c-0.35,0.11-0.75,0.58-1.16,1.22c-0.15,0.24-0.3,0.5-0.45,0.78c-1.08,2.02-2.04,4.82-2.04,4.82
	c0.08-0.94,0.18-1.91,0.29-2.88c0.01-0.11,0.03-0.22,0.04-0.34c0.12-0.99,0.26-2,0.41-2.99c0.02-0.12,0.04-0.24,0.05-0.36
	c0.17-1.12,0.35-2.24,0.54-3.31c0.02-0.14,0.05-0.28,0.07-0.41l0.01-0.07c0.02-0.12,0.04-0.25,0.07-0.37
	c0.03-0.19,0.06-0.37,0.1-0.55c0.15-0.85,0.31-1.68,0.47-2.46c0.14-0.71,0.28-1.38,0.41-2.01l0.04-0.2c0.02-0.1,0.04-0.19,0.06-0.28
	c0.02-0.09,0.04-0.19,0.06-0.28l0.01-0.03c0.03-0.16,0.07-0.32,0.1-0.47l0.01-0.04c0.03-0.15,0.06-0.27,0.09-0.41
	c0.05-0.22,0.09-0.44,0.14-0.64l0.01-0.06c0.04-0.16,0.07-0.33,0.11-0.48c0.05-0.22,0.1-0.41,0.13-0.6l0-0.01l0,0
	c0.02-0.11,0.05-0.2,0.07-0.3l0-0.02c0.02-0.09,0.04-0.18,0.06-0.26c0.05-0.2,0.09-0.38,0.12-0.52l0.03-0.12l0.01-0.04l0.03-0.15
	l0.02-0.1l0-0.01l-0.02,0.01l-0.22,0.2c-0.19,0.17-0.39,0.34-0.57,0.53l-0.2,0.22c-0.21,0.24-0.42,0.48-0.61,0.75l-0.1,0.13
	c-0.24,0.33-0.46,0.68-0.67,1.03v0l-0.03,0.05l0,0l-0.09,0.16c-0.05,0.09-0.09,0.17-0.14,0.26c-0.12,0.22-0.25,0.44-0.36,0.66
	l-0.01,0.01l0,0.01l-0.01,0.02l-0.04,0.08l-0.04,0.08c-0.17,0.35-0.32,0.7-0.47,1.05c-0.41,0.97-0.73,1.9-0.97,2.68
	c-0.08,0.28-0.16,0.54-0.22,0.77c-0.14,0.5-0.24,0.89-0.28,1.08l0,0.02l-0.03,0.13v0v0l0.01-0.15c0.02-0.3,0.05-0.59,0.07-0.89
	c0.05-0.62,0.09-1.25,0.15-1.86c0.05-0.52,0.13-1.03,0.21-1.54c0.02-0.16,0.05-0.32,0.07-0.48c0.03-0.24,0.06-0.48,0.1-0.71
	c0.03-0.22,0.08-0.44,0.12-0.65l0-0.02v0l0.05-0.24l0.01-0.07c0.05-0.26,0.1-0.53,0.15-0.8c0.02-0.1,0.04-0.21,0.06-0.31l0.04-0.18
	l0.01-0.03c0.02-0.09,0.04-0.17,0.06-0.26c0.02-0.11,0.05-0.21,0.07-0.32c0.09-0.39,0.18-0.77,0.27-1.15l0.02-0.06
	c0.07-0.29,0.13-0.57,0.2-0.85l0-0.01l0.01-0.02l0.02-0.08c0.15-0.58,0.32-1.15,0.48-1.72l0.09-0.31c0.03-0.11,0.06-0.22,0.09-0.32
	c0.28-0.93,0.57-1.84,0.88-2.73l0.04-0.11c0.27-0.76,0.54-1.51,0.82-2.24l0.03-0.08c0.13-0.32,0.26-0.63,0.39-0.95l0.02-0.05
	c0.19-0.48,0.39-0.96,0.58-1.42l0,0v0l0-0.01l0.02-0.06c0.05-0.12,0.18-0.4,0.37-0.81l0-0.01l0.03-0.06v0
	c0.07-0.16,0.15-0.32,0.22-0.49c0.12-0.26,0.24-0.52,0.35-0.78l0.11-0.23l0-0.01l2.02-3.62c0.08-0.15,0.17-0.3,0.25-0.46l0.04-0.07
	l0.1-0.19c0.22-0.4,0.44-0.81,0.66-1.2c0.32-0.58,0.63-1.14,0.92-1.67c0.59-1.07,1.1-1.97,1.41-2.51c0.17-0.3,0.28-0.5,0.32-0.56
	l0.01-0.03h0l-0.01-0.01l-0.02-0.01c-0.08-0.05-0.69-0.48-1.7-1.09c-1.15-0.69-2.82-1.63-4.85-2.57c-0.65-0.3-1.34-0.6-2.05-0.9
	c-0.86-0.35-1.76-0.7-2.7-1.01c-0.24-0.08-0.5-0.15-0.74-0.22c-0.79-0.25-1.59-0.47-2.42-0.67l-0.05-0.01
	c-0.57-0.14-1.13-0.28-1.71-0.39c-0.46-0.09-0.91-0.17-1.38-0.24c-0.22-0.03-0.45-0.05-0.67-0.07c-0.22-0.02-0.44-0.04-0.66-0.07
	c-0.63-0.06-1.25-0.08-1.88-0.1c-0.3-0.01-0.61-0.02-0.91-0.01c-1.37,0.03-2.71,0.15-4.02,0.34l-0.24,0.04
	c-2.38,0.36-4.67,0.95-6.85,1.78c-0.74,0.28-1.47,0.58-2.19,0.91c-0.2,0.09-0.41,0.19-0.61,0.29c-0.25,0.12-0.5,0.24-0.74,0.36
	c-2.16,1.11-4.19,2.46-6.04,4L51,151.11c-1.6,1.33-3.07,2.8-4.4,4.4c-0.38,0.46-0.75,0.92-1.1,1.4c-0.42,0.56-0.83,1.14-1.21,1.73
	c-0.73,1.11-1.39,2.27-1.99,3.47c-0.21,0.42-0.41,0.84-0.61,1.28c-0.04,0.08-0.07,0.17-0.1,0.25c-1.23,2.8-2.08,5.81-2.51,8.94
	c-0.08,0.61-0.15,1.23-0.2,1.86l-0.02,0.23c-0.04,0.5-0.06,0.99-0.08,1.49c-0.02,0.61-0.02,1.23-0.01,1.85
	c0,0.1,0.01,0.19,0.01,0.29c0.02,0.48,0.03,0.96,0.07,1.43l0.03,0.25c0.01,0.11,0.02,0.22,0.03,0.33c0.03,0.38,0.07,0.75,0.11,1.12
	l0.02,0.09v0.02l0,0c0.03,0.19,0.06,0.37,0.08,0.56c0.05,0.33,0.09,0.67,0.15,1c0.04,0.24,0.1,0.48,0.14,0.72
	c0.06,0.31,0.12,0.62,0.19,0.93c0.06,0.25,0.12,0.5,0.19,0.75l0.04,0.17l0.07,0.26l0.05,0.2l0.06,0.24
	c0.07,0.26,0.15,0.51,0.23,0.77c0.08,0.27,0.16,0.54,0.25,0.81c0.09,0.26,0.18,0.52,0.28,0.78l0.08,0.21
	c0.06,0.19,0.13,0.37,0.2,0.56c0.1,0.26,0.21,0.52,0.32,0.79c0.1,0.24,0.2,0.48,0.3,0.72c0.06,0.14,0.12,0.27,0.19,0.4
	c0.06,0.13,0.12,0.26,0.18,0.4c0.11,0.23,0.21,0.45,0.33,0.67c0.14,0.27,0.28,0.54,0.42,0.8c0.11,0.21,0.22,0.42,0.34,0.63
	c0.15,0.27,0.32,0.54,0.48,0.81c0.11,0.19,0.23,0.38,0.34,0.57c0.17,0.27,0.35,0.54,0.53,0.81c0.12,0.18,0.23,0.35,0.35,0.53
	c0.19,0.27,0.39,0.54,0.59,0.81c0.12,0.16,0.24,0.32,0.35,0.48c0.21,0.28,0.43,0.55,0.65,0.82c0.11,0.14,0.23,0.29,0.35,0.43
	c0.23,0.27,0.47,0.54,0.71,0.81c0.11,0.13,0.23,0.25,0.34,0.38c0.25,0.27,0.51,0.54,0.77,0.8c0.11,0.11,0.22,0.22,0.33,0.34
	c0.27,0.27,0.56,0.53,0.84,0.79c0.11,0.1,0.21,0.19,0.32,0.29c0.3,0.26,0.6,0.52,0.9,0.78c0.1,0.08,0.2,0.17,0.3,0.25
	c0.32,0.26,0.64,0.51,0.97,0.76c0.09,0.07,0.19,0.14,0.28,0.21c0.34,0.25,0.69,0.49,1.04,0.73l0.26,0.18
	c0.36,0.24,0.73,0.48,1.1,0.71l0.24,0.14c0.38,0.24,0.78,0.45,1.17,0.67l0.2,0.11c0.41,0.22,0.82,0.43,1.24,0.64l0.18,0.08
	c0.43,0.21,0.86,0.4,1.3,0.59l0.15,0.07c0.45,0.19,0.9,0.37,1.36,0.54l0.13,0.05c0.47,0.17,0.94,0.34,1.42,0.49l0.1,0.03
	c0.23,0.07,0.47,0.13,0.71,0.2c0.26,0.07,0.51,0.15,0.77,0.22l0.07,0.02c0.51,0.13,1.02,0.25,1.53,0.36l0.04,0.01c0,0,0.01,0,0.01,0
	c0.52,0.11,1.05,0.21,1.58,0.29l0.02,0.01c1.62,0.26,3.29,0.41,4.98,0.43c0.4,0.01,0.81,0.01,1.21,0.01
	c0.54-0.01,1.1-0.05,1.66-0.09c0.76-0.06,1.53-0.15,2.31-0.27c0.69-0.1,1.37-0.22,2.05-0.37c1.06-0.22,2.11-0.48,3.13-0.77
	c3.04-0.88,5.72-2.06,7.33-3.26c0,0-1.06-4.67-1.95-9.42C87.8,196.41,87.71,195.89,87.62,195.38"/>
<path class="st2" d="M226.01,83.07L226.01,83.07L226.01,83.07L226.01,83.07z"/>
<path class="st3" d="M163.46,19.78l-0.39-4.74l2.37-5.25l0.94-0.21c-1.55-0.72-3.4-1.23-5.53-1.5c-4.28-0.54-9.71-0.04-15.89,1.56
	c-6.19,1.59-13.12,4.26-20.48,7.92c-14.71,7.32-31.09,18.61-46.85,32.98C72.13,55.57,67,60.69,62.28,65.83
	c-4.58,4.99-8.77,9.99-12.53,14.92c-7.63,10.02-13.48,19.76-17.22,28.45c-2.49,5.79-4.04,11.11-4.6,15.66
	c-0.42,3.31-0.31,6.21,0.25,8.6c0.18,0.77,0.42,1.48,0.69,2.15c0.56,1.41,1.29,2.63,2.24,3.68l9.54,9.99l1.02,1.07l0.07-0.07
	c0.29-0.34,0.59-0.67,0.89-1l0.08-0.09c0.11-0.12,0.22-0.23,0.33-0.34c0.29-0.3,0.58-0.6,0.87-0.89c0.18-0.18,0.37-0.35,0.56-0.53
	c0.18-0.17,0.36-0.35,0.54-0.52c0.08-0.08,0.17-0.15,0.25-0.22c0.19-0.18,0.39-0.35,0.6-0.52c0.28-0.24,0.56-0.48,0.85-0.71
	c0.17-0.14,0.34-0.27,0.51-0.41l0.07-0.06c0.3-0.24,0.61-0.47,0.92-0.7c0.19-0.15,0.39-0.29,0.58-0.43
	c0.32-0.23,0.64-0.45,0.97-0.67c0.2-0.13,0.39-0.26,0.59-0.39c0.33-0.22,0.68-0.43,1.02-0.64c0.2-0.12,0.39-0.24,0.59-0.36
	c0.36-0.21,0.72-0.41,1.08-0.61c0.19-0.1,0.38-0.21,0.58-0.31l0.22-0.11l0.01-0.04c2.28-6.32,5.7-13.18,10.14-20.33
	c5.45-8.78,12.41-17.99,20.67-27.16c5.2-5.77,10.9-11.53,17.06-17.15c7.97-7.26,16.09-13.75,24.11-19.36
	c5.4-3.78,10.74-7.15,15.95-10.11c0.49-0.28,0.99-0.57,1.48-0.84c1.39-0.77,2.77-1.5,4.13-2.2c2.98-1.54,5.9-2.94,8.76-4.17
	l-1.4-1.68l-0.23-0.28l-11.58-13.93l0.09-8.48l-0.11-0.12l6.96-2.08L163.46,19.78z"/>
<path class="st4" d="M277.8,218.39L277.8,218.39c0,0,0.24-1.8-0.71-3.41l-0.02-0.04c-0.06-0.1-0.11-0.18-0.17-0.27l-0.06-0.09
	c-0.1-0.14-0.23-0.28-0.36-0.41c-0.23-0.24-0.5-0.47-0.83-0.68c-0.17-0.11-0.35-0.21-0.55-0.31c-0.54-0.26-1.19-0.45-1.95-0.57
	c-0.56-0.08-1.2-0.11-1.9-0.08c-0.28,0.01-0.56,0.02-0.87,0.04l-0.14,0.01c0,0,0.02,0.07,0.05,0.19c0.03,0.12,0.08,0.29,0.14,0.51
	c0.02,0.09,0.04,0.18,0.07,0.28c0.1,0.4,0.22,0.9,0.34,1.48c0,0-0.04,0.12-0.13,0.32l-0.05,0.11c-0.35,0.81-1.3,2.69-3.42,5.13
	c-0.36,0.41-0.76,0.85-1.19,1.3c-5.91,6.11-18.7,14.8-45.62,19.67c-9.13,1.29-17.55,1.36-24.74,0.46
	c-10.63-1.32-18.6-4.72-22.31-9.29c-0.32-0.39-0.62-0.8-0.9-1.2c-0.21-0.3-0.41-0.61-0.59-0.91c-0.07-0.11-0.13-0.23-0.19-0.34
	c-1.59-2.82-2.29-5.89-2.25-8.86c0.05-3.61,1.18-7.06,3.08-9.72c1.55-2.15,3.6-3.78,6.01-4.53c1.18-0.37,2.44-0.53,3.76-0.44
	c0.27,0.02,0.62,0.06,1.06,0.11c0.88,0.11,2.12,0.28,3.63,0.48c0.17,0.02,0.33,0.04,0.5,0.06c5.05,0.63,13.09,1.39,22.82,0.79
	c17.69-1.08,40.98-6.65,62.13-25.72l0.06-0.07v-0.03c0.07-1.6-0.14-4.48-2.16-6.73c-0.35-0.39-0.76-0.76-1.23-1.11
	c-0.27-0.2-0.55-0.38-0.86-0.56c-0.31-0.17-0.59-0.35-0.87-0.52c-0.37-0.24-0.73-0.47-1.04-0.7l-0.05-0.07
	c-0.14-0.22-0.3-0.44-0.44-0.66c-5.49-8.31-13.04-13.13-16.06-15.34c-1.42-1.04-2.33-1.52-2.33-1.52
	c-6.53-3.98-7.48-5.29-6.87-16.09c0.22-3.89,0.64-9,1.07-15.92c0.06-0.9,0.09-1.76,0.1-2.6c0-0.2,0.01-0.4,0.01-0.59
	c0.01-0.8,0-1.57-0.03-2.32l-0.01-0.21l-0.02-0.23c-0.03-0.59-0.07-1.16-0.12-1.71c-0.02-0.24-0.05-0.49-0.07-0.73
	c-0.06-0.59-0.14-1.17-0.23-1.72c-0.05-0.28-0.1-0.56-0.15-0.83c-0.06-0.31-0.12-0.61-0.19-0.91c-0.06-0.29-0.13-0.59-0.2-0.87l0,0
	l0,0v0c-0.09-0.35-0.19-0.68-0.28-1.01c-0.04-0.12-0.06-0.25-0.1-0.36c-0.04-0.11-0.08-0.21-0.11-0.32l-0.04-0.11l-0.11-0.32l0-0.02
	c-0.09-0.26-0.19-0.5-0.28-0.75l-0.03-0.08l-0.09-0.23l-0.11-0.28l-0.03-0.05v-0.01c-0.2-0.46-0.4-0.9-0.62-1.32l-0.17-0.31
	c-0.25-0.41-0.5-0.79-0.76-1.16l-0.1-0.15l-0.13-0.17c-0.19-0.25-0.37-0.5-0.56-0.74l-0.26-0.32c-0.25-0.3-0.5-0.58-0.75-0.85l0,0
	c-0.31-0.32-0.62-0.63-0.93-0.92c-0.36-0.22-0.71-0.42-1.07-0.6c-0.12-0.06-0.23-0.11-0.35-0.16c-0.23-0.11-0.47-0.22-0.71-0.3
	c-0.14-0.05-0.27-0.09-0.41-0.14c-0.21-0.07-0.43-0.14-0.64-0.19c-0.14-0.03-0.28-0.06-0.42-0.09c-0.21-0.04-0.41-0.08-0.62-0.11
	c-0.14-0.02-0.28-0.04-0.42-0.05c-0.2-0.02-0.41-0.03-0.61-0.04c-0.14,0-0.28-0.01-0.41,0c-0.21,0-0.42,0.01-0.63,0.03
	c-0.13,0.01-0.26,0.02-0.38,0.03l-0.28,0.04c-0.13,0.02-0.25,0.04-0.39,0.06c-0.11,0.02-0.22,0.04-0.33,0.06
	c-0.26,0.05-0.52,0.12-0.77,0.19l-0.22,0.06c-0.67,0.2-1.35,0.46-2.01,0.76l-0.22,0.11c-0.26,0.12-0.52,0.24-0.78,0.38l-0.3,0.16
	c-0.24,0.12-0.47,0.25-0.7,0.38l-0.32,0.19c-0.23,0.13-0.46,0.27-0.69,0.41l-0.31,0.19c-0.24,0.15-0.48,0.3-0.72,0.46l-0.27,0.17
	c-0.27,0.18-0.55,0.36-0.82,0.55l-0.16,0.11c-0.31,0.21-0.62,0.42-0.93,0.64l-0.01,0.01l-0.05,0.03h0c-0.58,0.4-1.16,0.81-1.75,1.22
	c-0.49,0.34-0.99,0.69-1.5,1.03l-0.24,0.17c-0.51,0.34-1.02,0.67-1.53,1l-0.26,0.16c-0.52,0.32-1.04,0.63-1.56,0.93l-0.28,0.15
	c-0.53,0.3-1.06,0.57-1.6,0.84l-0.27,0.13c-0.55,0.26-1.1,0.5-1.67,0.71l-0.23,0.09c-0.58,0.21-1.17,0.41-1.77,0.57l-0.16,0.04
	c-0.63,0.16-1.27,0.29-1.92,0.38c-1.1,0.15-2.19,0.2-3.29,0.2c-1.79,0.01-3.59-0.14-5.39-0.41c-0.6-0.09-1.21-0.2-1.81-0.31
	c-0.22-0.04-0.43-0.07-0.64-0.11c-1.57-0.31-3.16-0.67-4.75-1.06c-0.67-0.16-1.34-0.32-2.01-0.48c-1.08-0.26-2.17-0.52-3.26-0.77
	c-0.22-0.05-0.43-0.1-0.64-0.15l0.01,0c-0.15-0.03-0.31-0.06-0.46-0.1c-0.24-0.05-0.48-0.11-0.72-0.16
	c-0.23-0.05-0.46-0.09-0.69-0.14l-0.12-0.02l-0.08-0.02c-0.21-0.04-0.42-0.09-0.64-0.13c-0.5-0.09-0.99-0.18-1.49-0.26
	c-0.15-0.03-0.3-0.04-0.44-0.07c-0.37-0.06-0.74-0.11-1.11-0.16c-0.19-0.03-0.38-0.04-0.56-0.07l-0.04,0
	c-0.32-0.04-0.65-0.08-0.97-0.11c-0.22-0.02-0.43-0.04-0.64-0.06c-0.1-0.01-0.19-0.01-0.29-0.02c-0.22-0.02-0.44-0.03-0.67-0.05
	c-0.21-0.01-0.42-0.03-0.64-0.04c-0.34-0.01-0.68-0.02-1.01-0.03c-0.1,0-0.2,0-0.3,0c-0.09,0-0.19,0-0.28,0
	c-0.42,0-0.84,0.01-1.27,0.03c-0.11,0-0.23,0-0.34,0.01c-0.54,0.02-1.08,0.06-1.62,0.12c-0.14,0.01-0.28,0.04-0.42,0.05
	c-0.35,0.04-0.7,0.09-1.06,0.14l-0.16,0.02c-0.19,0.03-0.39,0.06-0.58,0.1c-0.36,0.07-0.72,0.14-1.08,0.21
	c-0.21,0.05-0.42,0.09-0.63,0.15c-0.36,0.09-0.72,0.18-1.08,0.28c-0.2,0.06-0.41,0.11-0.62,0.18c-0.39,0.12-0.78,0.25-1.17,0.39
	c-0.18,0.06-0.35,0.12-0.53,0.19c-0.57,0.21-1.14,0.44-1.71,0.69c-4.48,2.58-8.34,6.11-11.4,10.22c-1.02,1.37-1.95,2.8-2.79,4.29
	c-0.89,1.57-1.66,3.21-2.33,4.88c-0.2,0.49-0.38,0.98-0.56,1.47c-0.29,0.84-0.57,1.68-0.81,2.53c-0.02,0.09-0.04,0.18-0.07,0.28
	c-0.26,0.96-0.49,1.93-0.68,2.91c-0.2,1.02-0.35,2.05-0.46,3.08c-0.06,0.56-0.12,1.11-0.15,1.67c-0.1,1.5-0.09,3.01,0,4.52
	c0.01,0.14,0.02,0.27,0.03,0.41c0.03,0.39,0.04,0.77,0.08,1.15c0.11,1.07,0.26,2.14,0.48,3.2c0.08,0.39,0.18,0.76,0.28,1.14
	c0.09,0.36,0.17,0.74,0.27,1.09v0c0.75,2.71,1.83,5.16,3.11,7.38c4.89,8.44,12.92,13.49,18.74,16.2c2.26,1,4.63,1.89,7.08,2.67
	c0,0-0.12,0.07-0.3,0.19c-0.43,0.11-0.94,0.24-1.5,0.4c-0.85,0.24-1.84,0.54-2.92,0.9c-1.22,0.41-2.56,0.9-3.98,1.49
	c-3.78,1.57-8.07,3.79-11.87,6.87c-0.48,0.38-0.94,0.78-1.4,1.19c-0.78,0.7-1.52,1.45-2.24,2.23c-0.08,0.09-0.17,0.17-0.25,0.26
	c-0.11,0.12-0.22,0.25-0.32,0.37c-0.27,0.32-0.54,0.64-0.8,0.97c-0.1,0.13-0.21,0.26-0.31,0.4c-0.34,0.45-0.67,0.91-0.99,1.38
	c-0.31,0.47-0.61,0.95-0.89,1.43c-2.25,3.93-3.53,8.64-3.14,14.25l0.01-0.06l0.01-0.04c0.01-0.05,0.02-0.12,0.04-0.21l0.01-0.05
	c0.02-0.09,0.04-0.19,0.07-0.3l0.02-0.07c0.03-0.13,0.07-0.27,0.11-0.43l0.03-0.1c0.05-0.17,0.1-0.35,0.15-0.55l0,0
	c0.06-0.2,0.13-0.41,0.19-0.63l0.04-0.13c0.07-0.22,0.15-0.45,0.24-0.69l0.05-0.11c0.08-0.23,0.17-0.46,0.27-0.7l0.05-0.11
	c0.11-0.26,0.22-0.53,0.35-0.8l0.08-0.17c0.13-0.28,0.26-0.56,0.41-0.84v0c0.01-0.01,0.01-0.02,0.02-0.03
	c0.22-0.43,0.47-0.86,0.74-1.3c0.1-0.17,0.2-0.33,0.31-0.5l0.09-0.14l0,0c0.23-0.34,0.47-0.68,0.73-1.02
	c0.21-0.28,0.43-0.55,0.66-0.82c0.07-0.09,0.15-0.17,0.23-0.26c0.18-0.21,0.38-0.41,0.57-0.62c0.08-0.08,0.16-0.17,0.24-0.25
	c0.27-0.27,0.55-0.53,0.85-0.78l0.02-0.02v0v0c0,0-5.11,11.57-2.89,20.74c0,0,0-0.03,0-0.08v-0.06c0-0.05,0-0.11,0-0.19
	c0-0.02,0-0.03,0-0.05c0-0.09,0-0.2,0.01-0.33c0-0.02,0-0.03,0-0.05c0-0.14,0.01-0.29,0.02-0.46c0-0.02,0-0.03,0-0.05
	c0.01-0.17,0.02-0.36,0.04-0.57c0-0.02,0-0.03,0-0.05c0.02-0.21,0.03-0.42,0.06-0.65c0-0.02,0-0.04,0.01-0.06
	c0.02-0.23,0.06-0.47,0.09-0.72c0-0.02,0.01-0.04,0.01-0.07c0.04-0.27,0.08-0.54,0.14-0.83l0.01-0.07l0.03-0.14v-0.01
	c0.06-0.32,0.14-0.65,0.22-0.98c0.01-0.02,0.01-0.04,0.02-0.07c0.09-0.32,0.18-0.65,0.28-0.98c0.03-0.1,0.06-0.2,0.1-0.3l0.07-0.21
	v0c0.1-0.27,0.2-0.54,0.32-0.81l0.02-0.04l0,0c0.16-0.38,0.35-0.74,0.54-1.1c0.05-0.1,0.11-0.19,0.16-0.28
	c0.21-0.36,0.43-0.71,0.69-1.04l0.01-0.02v0v0h0c0,0-0.29,2.85-0.22,6.24c0.01,0.53,0.04,1.08,0.07,1.63
	c0.02,0.37,0.04,0.74,0.08,1.11c0.23-3.64,0.89-7.06,1.86-10.25c-0.97,3.19-1.63,6.61-1.86,10.26v0c-0.15,2.32-0.11,4.74,0.13,7.24
	c0.41,4.17,1.4,8.58,3.14,13.22c0,0-1.6-5.34,0.7-10.67c0.21,0.49,0.43,0.97,0.66,1.47c0.19,1.58,0.51,3.83,0.97,6.31
	c0.45,4.13,2.42,16.5,10.83,25.21c0,0-3.18-4.12-2.68-9.49c0.33,0.71,0.66,1.34,0.97,1.89c1.44,2.69,4.3,7.71,7.42,11.18
	c0,0-2.53-4.9-1.94-5.96c0,0,8.25,10.26,10.88,11.26l-3.45-5.72l-0.08-0.17c11.99,8.69,28.44,11.92,48.78,6.26
	c3.5-0.98,7.11-2.21,10.83-3.73c2.29-0.99,4.55-2.07,6.79-3.28l0.32-0.18c1.57-0.86,3.12-1.78,4.66-2.75l0.03-0.02
	c1.16-0.73,2.31-1.49,3.44-2.28c1.9-1.34,3.78-2.75,5.62-4.28l0,0l0.01-0.01c0.11-0.09,0.21-0.18,0.32-0.28
	c1.82-1.59,3.52-3.22,5.1-4.89c2.09-2.2,3.97-4.44,5.66-6.7l0.13-0.16c0.41-0.56,0.82-1.11,1.22-1.66l0.11-0.16
	c0.13-0.19,0.24-0.37,0.37-0.55c0.55-0.79,1.09-1.58,1.6-2.36c0.12-0.19,0.25-0.38,0.37-0.57c0.26-0.42,0.52-0.83,0.77-1.24
	c0.19-0.32,0.39-0.64,0.57-0.96c0.21-0.35,0.41-0.7,0.62-1.04c0.36-0.63,0.7-1.25,1.04-1.87c0.13-0.25,0.26-0.48,0.38-0.73
	c0.25-0.48,0.5-0.96,0.74-1.43c0.11-0.22,0.22-0.44,0.33-0.66l0.1-0.21c0.3-0.59,0.58-1.19,0.85-1.77l0.05-0.12
	c1.02-0.96,1.82-1.86,2.46-2.73c0.09-0.12,0.19-0.25,0.27-0.37C277.3,221.83,277.77,220.02,277.8,218.39"/>
<path class="st4" d="M86.66,188.18c-0.35,0.11-0.75,0.58-1.16,1.22c-0.15,0.24-0.3,0.5-0.45,0.78c-1.08,2.02-2.04,4.82-2.04,4.82
	c0.08-0.94,0.18-1.91,0.29-2.88c0.01-0.11,0.03-0.22,0.04-0.34c0.12-0.99,0.26-2,0.41-2.99c0.02-0.12,0.04-0.24,0.05-0.36
	c0.17-1.12,0.35-2.24,0.54-3.31c0.02-0.14,0.05-0.28,0.07-0.41l0.01-0.07c0.02-0.12,0.04-0.25,0.07-0.37
	c0.03-0.19,0.06-0.37,0.1-0.55c0.15-0.85,0.31-1.68,0.47-2.46c0.14-0.71,0.28-1.38,0.41-2.01l0.04-0.2c0.02-0.1,0.04-0.19,0.06-0.28
	c0.02-0.09,0.04-0.19,0.06-0.28l0.01-0.03c0.03-0.16,0.07-0.32,0.1-0.47l0.01-0.04c0.03-0.15,0.06-0.27,0.09-0.41
	c0.05-0.22,0.09-0.44,0.14-0.64l0.01-0.06c0.04-0.16,0.07-0.33,0.11-0.48c0.05-0.22,0.1-0.41,0.13-0.6l0-0.01l0,0
	c0.02-0.11,0.05-0.2,0.07-0.3l0-0.02c0.02-0.09,0.04-0.18,0.06-0.26c0.05-0.2,0.09-0.38,0.12-0.52l0.03-0.12l0.01-0.04l0.03-0.15
	l0.02-0.1l0-0.01l-0.02,0.01l-0.22,0.2c-0.19,0.17-0.39,0.34-0.57,0.53l-0.2,0.22c-0.21,0.24-0.42,0.48-0.61,0.75l-0.1,0.13
	c-0.24,0.33-0.46,0.68-0.67,1.03v0l-0.03,0.05l0,0l-0.09,0.16c-0.05,0.09-0.09,0.17-0.14,0.26c-0.12,0.22-0.25,0.44-0.36,0.66
	l-0.01,0.01l0,0.01l-0.01,0.02l-0.04,0.08l-0.04,0.08c-0.17,0.35-0.32,0.7-0.47,1.05c-0.41,0.97-0.73,1.9-0.97,2.68
	c-0.08,0.28-0.16,0.54-0.22,0.77c-0.14,0.5-0.24,0.89-0.28,1.08l0,0.02l-0.03,0.13v0v0l0.01-0.15c0.02-0.3,0.05-0.59,0.07-0.89
	c0.05-0.62,0.09-1.25,0.15-1.86c0.05-0.52,0.13-1.03,0.21-1.54c0.02-0.16,0.05-0.32,0.07-0.48c0.03-0.24,0.06-0.48,0.1-0.71
	c0.03-0.22,0.08-0.44,0.12-0.65l0-0.02v0l0.05-0.24l0.01-0.07c0.05-0.26,0.1-0.53,0.15-0.8c0.02-0.1,0.04-0.21,0.06-0.31l0.04-0.18
	l0.01-0.03c0.02-0.09,0.04-0.17,0.06-0.26c0.02-0.11,0.05-0.21,0.07-0.32c0.09-0.39,0.18-0.77,0.27-1.15l0.02-0.06
	c0.07-0.29,0.13-0.57,0.2-0.85l0-0.01l0.01-0.02l0.02-0.08c0.15-0.58,0.32-1.15,0.48-1.72l0.09-0.31c0.03-0.11,0.06-0.22,0.09-0.32
	c0.28-0.93,0.57-1.84,0.88-2.73l0.04-0.11c0.27-0.76,0.54-1.51,0.82-2.24l0.03-0.08c0.13-0.32,0.26-0.63,0.39-0.95l0.02-0.05
	c0.19-0.48,0.39-0.96,0.58-1.42l0,0v0l0-0.01l0.02-0.06c0.05-0.12,0.18-0.4,0.37-0.81l0-0.01l0.03-0.06v0
	c0.07-0.16,0.15-0.32,0.22-0.49c0.12-0.26,0.24-0.52,0.35-0.78l0.11-0.23c-0.17-0.09-0.34-0.17-0.51-0.26l-0.1-0.05L87,160.62
	c-1.1-0.53-2.27-0.95-3.47-1.27l-0.19-0.05c-0.77-0.19-1.56-0.34-2.37-0.43c-0.47-0.05-0.93-0.1-1.41-0.11
	c-0.39-0.02-0.79-0.02-1.19-0.01c-0.6,0.01-1.19,0.06-1.77,0.13c-0.19,0.02-0.37,0.06-0.54,0.08c-0.29,0.04-0.57,0.1-0.86,0.15
	c-0.11,0.02-0.23,0.04-0.34,0.06c-0.2,0.04-0.4,0.09-0.6,0.14c-0.39,0.1-0.77,0.2-1.15,0.32c-0.18,0.06-0.35,0.1-0.52,0.16
	c-0.51,0.18-1.02,0.38-1.51,0.59c-0.2,0.09-0.38,0.19-0.57,0.28c-0.22,0.11-0.45,0.23-0.67,0.34l-0.23,0.12
	c-0.24,0.13-0.48,0.28-0.72,0.42c-0.22,0.13-0.44,0.28-0.65,0.42c-0.26,0.17-0.51,0.35-0.76,0.53c-0.15,0.12-0.3,0.24-0.45,0.35
	c-0.4,0.32-0.78,0.66-1.16,1.01c-0.19,0.18-0.38,0.37-0.57,0.55c-0.33,0.33-0.65,0.66-0.95,1.01l-0.15,0.17
	c-0.16,0.19-0.31,0.39-0.45,0.59l-0.02,0.03l-0.02,0.03c-0.1,0.13-0.21,0.26-0.31,0.39l-0.04,0.05l-0.04,0.05l0,0l0,0
	c-0.61,0.85-1.14,1.75-1.6,2.69c-0.07,0.13-0.13,0.27-0.19,0.41c-0.21,0.46-0.41,0.93-0.59,1.41c-0.07,0.19-0.15,0.37-0.21,0.57l0,0
	v0l0,0c-0.16,0.49-0.3,0.98-0.43,1.49l-0.05,0.19l-0.04,0.24l-0.01,0.02c-0.08,0.37-0.16,0.74-0.22,1.11
	c-0.03,0.18-0.05,0.37-0.07,0.56l-0.01,0.05c-0.02,0.2-0.04,0.4-0.06,0.6c-0.02,0.15-0.04,0.3-0.05,0.46
	c-0.04,0.59-0.06,1.19-0.05,1.79c0.01,0.47,0.05,0.93,0.1,1.38l0,0.03l0.02,0.21c0.02,0.25,0.07,0.5,0.11,0.76
	c0.14,0.92,0.32,1.81,0.59,2.68c0.2,0.66,0.43,1.3,0.69,1.93c0.49,1.15,1.09,2.24,1.78,3.26c1.45,2.15,3.32,4,5.51,5.41
	c1.24,0.8,2.58,1.45,3.99,1.94c1.36,0.48,2.77,0.83,4.25,0.99c0.33,0.03,0.67,0.06,1,0.08c0.5,0.03,1.01,0.05,1.52,0.04
	c0.47-0.01,0.93-0.07,1.4-0.11c0.26-0.02,0.54-0.03,0.8-0.06c0.67-0.09,1.32-0.23,1.97-0.39l0.15-0.03
	c0.27-0.07,0.52-0.17,0.78-0.25c0.81-0.25,1.6-0.54,2.36-0.9l0.17-0.07c0.21-0.09,0.43-0.18,0.64-0.28l0.02-0.01
	c-0.37-2.05-0.65-4.15-0.86-6.3C86.69,188.48,86.67,188.33,86.66,188.18"/>
<path class="st5" d="M166.43,21.3l0.35,0.18l-0.01-0.05L166.43,21.3z"/>
<path class="st6" d="M270.49,213.55c-0.03-0.1-0.05-0.19-0.07-0.28c-0.06-0.22-0.1-0.39-0.14-0.51c-0.58-1.88-1.31-3.35-1.97-4.4
	c-0.84-1.35-1.53-2.02-1.53-2.02c0.14-0.48,0.25-0.94,0.35-1.4c0.13-0.6,0.23-1.19,0.29-1.75c0.5-4.29-0.64-7.62-1.56-9.5
	c-0.15-0.3-0.28-0.56-0.41-0.79c-0.66,0.47-1.33,0.93-2,1.39c-12.71,8.6-27.01,14.12-42.49,16.5c-10.67,1.64-21.9,1.79-33.57,0.37
	l0.2,0.06c0,0-7.03,0.96-8.94,7.71l0.12,0.07l-0.58,4.53c0.21,6.13,3.01,9.97,6.2,11.98c3.31,1.26,7.32,2.23,11.76,2.78
	c7.74,0.96,16.61,0.71,25.68-0.73l0.05-0.01l0.05-0.01c12.05-1.62,29.07-8.05,41.23-16.36c2.77-1.89,5.29-3.88,7.44-5.93l0.08-0.08
	l0.15-0.14C270.71,214.46,270.59,213.95,270.49,213.55"/>
<path class="st7" d="M247.49,155.14c-6.53-3.98-7.48-5.29-6.87-16.09c0.22-3.89,0.64-9,1.07-15.92c0.06-0.9,0.09-1.76,0.1-2.6
	c0-0.2,0.01-0.4,0.01-0.59c0.01-0.8,0-1.57-0.03-2.32l-0.01-0.21l-0.02-0.23c-0.03-0.59-0.07-1.16-0.12-1.71
	c-0.02-0.24-0.05-0.49-0.07-0.73c-0.06-0.59-0.14-1.17-0.23-1.72c-0.05-0.28-0.1-0.56-0.15-0.83c-0.06-0.31-0.12-0.61-0.19-0.91
	c-0.06-0.29-0.13-0.59-0.2-0.87l0,0l0,0c-0.93-1.38-2.03-2.62-3.33-3.67l-0.25-0.19l-0.05-0.04l-0.19-0.14l-0.06-0.05
	c-0.19-0.14-0.38-0.28-0.58-0.41c-0.21-0.14-0.42-0.27-0.63-0.4c-1.93-1.17-4.08-1.91-6.38-2.25c-1.27-0.19-2.59-0.25-3.94-0.2
	c-0.63,0.02-1.26,0.08-1.9,0.15c-1.66,0.19-3.37,0.55-5.1,1.08c-0.58,0.4-1.16,0.81-1.75,1.22c-0.49,0.34-0.99,0.69-1.5,1.03
	l-0.24,0.17c-0.51,0.34-1.02,0.67-1.53,1l-0.26,0.16c-0.52,0.32-1.04,0.63-1.56,0.93l-0.28,0.15c-0.53,0.3-1.06,0.57-1.6,0.84
	l-0.27,0.13c-0.55,0.26-1.1,0.5-1.67,0.71l-0.23,0.09c-0.58,0.21-1.17,0.41-1.77,0.57l-0.16,0.04c-0.63,0.16-1.27,0.29-1.92,0.38
	c-1.1,0.15-2.19,0.2-3.29,0.2c-1.79,0.01-3.59-0.14-5.39-0.41c-0.6-0.09-1.21-0.2-1.81-0.31c-0.22-0.04-0.43-0.07-0.64-0.11
	c-1.57-0.31-3.16-0.67-4.75-1.06c-0.67-0.16-1.34-0.32-2.01-0.48c-1.08-0.26-2.17-0.52-3.26-0.77c-0.22-0.05-0.43-0.1-0.64-0.15
	c-0.92,0.05-1.84,0.14-2.76,0.26l-0.2,0.02c-2.68,0.35-5.37,0.99-8.03,1.91c-0.15,0.05-0.3,0.09-0.44,0.15
	c-0.42,0.15-0.83,0.31-1.24,0.47c-0.55,0.22-1.11,0.45-1.66,0.69c-3.85,1.7-7.6,4.02-11.08,6.96c-1.41,1.19-2.73,2.46-3.96,3.77
	c-1.89,2.01-3.57,4.16-5.04,6.39c-0.08,0.13-0.16,0.25-0.24,0.37c-0.78,1.21-1.5,2.45-2.15,3.71c-0.23,0.45-0.47,0.9-0.69,1.35
	l-0.04,0.09c-0.7,1.48-1.31,2.99-1.83,4.51c-0.03,0.09-0.06,0.18-0.08,0.27c-0.07,0.22-0.13,0.44-0.2,0.66
	c-0.22,0.71-0.43,1.42-0.62,2.12c-0.19,0.74-0.37,1.47-0.52,2.21c-0.03,0.16-0.07,0.32-0.09,0.48c-0.09,0.45-0.17,0.9-0.24,1.35
	c-0.25,1.66-0.39,3.32-0.43,4.96c-0.01,0.41-0.03,0.83-0.02,1.24c0.75,2.71,1.83,5.16,3.11,7.38c4.89,8.44,12.92,13.49,18.74,16.2
	c2.26,1,4.63,1.89,7.08,2.67l0.06,0.11l0,0l0.01,0l0.16-0.12c0.31-0.24,0.63-0.48,0.95-0.71c0.11-0.09,0.23-0.17,0.35-0.26
	c0.33-0.24,0.67-0.49,1.02-0.73c0.12-0.08,0.23-0.16,0.35-0.24c0.35-0.24,0.7-0.49,1.07-0.73c0.12-0.08,0.24-0.16,0.37-0.24
	c0.37-0.24,0.74-0.49,1.12-0.73c0.13-0.08,0.25-0.16,0.38-0.24c0.39-0.24,0.78-0.48,1.17-0.72c0.14-0.08,0.27-0.16,0.41-0.24
	c0.4-0.23,0.8-0.47,1.21-0.7c0.15-0.08,0.3-0.16,0.45-0.25c0.4-0.23,0.82-0.45,1.24-0.68c0.17-0.09,0.33-0.18,0.5-0.27
	c0.41-0.22,0.83-0.44,1.26-0.65c0.18-0.09,0.36-0.18,0.55-0.28c0.42-0.21,0.85-0.42,1.28-0.63c0.2-0.1,0.41-0.19,0.62-0.29
	c0.42-0.2,0.85-0.4,1.29-0.6c0.23-0.11,0.46-0.21,0.69-0.31c0.42-0.19,0.85-0.38,1.29-0.56c0.26-0.11,0.52-0.22,0.78-0.33
	c0.42-0.18,0.85-0.35,1.28-0.53c0.29-0.11,0.58-0.23,0.87-0.35c0.42-0.16,0.84-0.33,1.27-0.49c0.32-0.12,0.65-0.24,0.97-0.36
	c0.42-0.15,0.83-0.3,1.25-0.45c0.36-0.13,0.72-0.25,1.08-0.38c0.41-0.14,0.81-0.28,1.23-0.42c0.4-0.13,0.8-0.26,1.2-0.39
	c0.4-0.13,0.79-0.26,1.19-0.38c0.44-0.14,0.89-0.27,1.34-0.41c0.38-0.11,0.76-0.23,1.14-0.34c0.49-0.14,0.99-0.28,1.48-0.42
	c0.25-0.07,0.49-0.14,0.74-0.21c1.93-4.86,7.67-16.93,17.49-18.25c1.06-0.15,2.01-0.21,2.91-0.22c0.23,0,0.47-0.02,0.68-0.01
	c-0.11-0.7-0.2-1.43-0.25-2.19c-0.31-5.2,1.29-9.52,3.57-9.65c1.76-0.14,3.17,2.43,3.41,3.33c0.67,1.58,1.14,3.6,1.28,5.84
	c0.12,2.05-0.07,3.93-0.46,5.51c0.2,0.2,0.36,0.43,0.54,0.65c2.25,2.79,2.63,6.67,2.54,9.41c0.87-0.09,1.77-0.17,2.67-0.24
	c0.23-0.02,0.45-0.04,0.69-0.06l0.14-0.01c0.13-0.01,0.26-0.02,0.39-0.03c1.11-0.09,2.23-0.18,3.37-0.26l0.05,0
	c2.58-0.18,5.23-0.33,7.97-0.45C248.4,155.61,247.49,155.14,247.49,155.14"/>
<path class="st7" d="M272.21,227.89c-4.3,3.83-8.8,6.9-13.26,9.37c-2.23,1.23-4.44,2.29-6.62,3.24c-4.85,2.11-9.5,3.58-13.59,4.58
	c-9.04,2.2-15.42,2.21-15.42,2.21c4.94,2.73,11.2,2.76,15.5,2.33c2.95-0.29,4.99-0.8,4.99-0.8c-0.09,1.82-0.32,3.48-0.64,5.04
	c-0.36,1.73-0.85,3.29-1.44,4.73l-0.05,0.12l0,0.01c-0.74,1.77-1.62,3.33-2.61,4.7c-0.11,0.15-0.21,0.31-0.32,0.45l0.32-0.18
	c1.57-0.86,3.12-1.78,4.66-2.75l0.03-0.02c1.16-0.73,2.31-1.49,3.44-2.28c1.9-1.34,3.78-2.75,5.62-4.28l0,0l0.01-0.01
	c0.11-0.09,0.21-0.18,0.32-0.28c1.82-1.59,3.52-3.22,5.1-4.89c2.09-2.2,3.97-4.44,5.66-6.7l0.13-0.16c0.41-0.56,0.82-1.11,1.22-1.66
	l0.11-0.16c0.13-0.19,0.24-0.37,0.37-0.55c0.55-0.79,1.09-1.58,1.6-2.36c0.12-0.19,0.25-0.38,0.37-0.57
	c0.26-0.42,0.52-0.83,0.77-1.24c0.19-0.32,0.39-0.64,0.57-0.96c0.21-0.35,0.41-0.7,0.62-1.04c0.36-0.63,0.7-1.25,1.04-1.87
	c0.13-0.25,0.26-0.48,0.38-0.73c0.25-0.48,0.5-0.96,0.74-1.43c0.11-0.22,0.22-0.44,0.33-0.66l0.1-0.21c0.3-0.59,0.58-1.19,0.85-1.77
	C272.8,227.38,272.51,227.63,272.21,227.89"/>
<path class="st7" d="M164.48,180.3c-1.22,0.41-2.56,0.9-3.98,1.49c-3.78,1.57-8.07,3.79-11.87,6.87c-0.48,0.38-0.94,0.78-1.4,1.19
	c-0.78,0.7-1.52,1.45-2.24,2.23c-0.08,0.09-0.17,0.17-0.25,0.26c-0.11,0.12-0.22,0.25-0.32,0.37c-0.27,0.32-0.54,0.64-0.8,0.97
	c-0.1,0.13-0.21,0.26-0.31,0.4c-0.34,0.45-0.67,0.91-0.99,1.38c-0.31,0.47-0.61,0.95-0.89,1.43c-2.25,3.93-3.53,8.64-3.14,14.25
	l0.01-0.06l0.01-0.04c0.01-0.05,0.02-0.12,0.04-0.21l0.01-0.05c0.02-0.09,0.04-0.19,0.07-0.3l0.02-0.07
	c0.03-0.13,0.07-0.27,0.11-0.43l0.03-0.1c0.05-0.17,0.1-0.35,0.15-0.55l0,0c0.06-0.2,0.13-0.41,0.19-0.63l0.04-0.13
	c0.07-0.22,0.15-0.45,0.24-0.69l0.05-0.11c0.08-0.23,0.17-0.46,0.27-0.7l0.05-0.11c0.11-0.26,0.22-0.53,0.35-0.8l0.08-0.17
	c0.13-0.28,0.26-0.56,0.41-0.84v0c0.01-0.01,0.01-0.02,0.02-0.03c0.22-0.43,0.47-0.86,0.74-1.3c0.1-0.17,0.2-0.33,0.31-0.5
	l0.09-0.14l0,0c0.23-0.34,0.47-0.68,0.73-1.02c0.21-0.28,0.43-0.55,0.66-0.82c0.07-0.09,0.15-0.17,0.23-0.26
	c0.18-0.21,0.38-0.41,0.57-0.62c0.08-0.08,0.16-0.17,0.24-0.25c0.27-0.27,0.55-0.53,0.85-0.78l0.02-0.02v0v0
	c0,0-5.11,11.57-2.89,20.74c0,0,0-0.03,0-0.08v-0.06c0-0.05,0-0.11,0-0.19c0-0.02,0-0.03,0-0.05c0-0.09,0-0.2,0.01-0.33
	c0-0.02,0-0.03,0-0.05c0-0.14,0.01-0.29,0.02-0.46c0-0.02,0-0.03,0-0.05c0.01-0.17,0.02-0.36,0.04-0.57c0-0.02,0-0.03,0-0.05
	c0.02-0.21,0.03-0.42,0.06-0.65c0-0.02,0-0.04,0.01-0.06c0.02-0.23,0.06-0.47,0.09-0.72c0-0.02,0.01-0.04,0.01-0.07
	c0.04-0.27,0.08-0.54,0.14-0.83l0.01-0.07l0.03-0.14v-0.01c0.06-0.32,0.14-0.65,0.22-0.98c0.01-0.02,0.01-0.04,0.02-0.07
	c0.09-0.32,0.18-0.65,0.28-0.98c0.03-0.1,0.06-0.2,0.1-0.3l0.07-0.21v0c0.1-0.27,0.2-0.54,0.32-0.81l0.02-0.04l0,0
	c0.16-0.38,0.35-0.74,0.54-1.1c0.05-0.1,0.11-0.19,0.16-0.28c0.21-0.36,0.43-0.71,0.69-1.04l0.01-0.02v0v0h0
	c0,0-0.29,2.85-0.22,6.24c0.01,0.53,0.04,1.08,0.07,1.63c0.02,0.37,0.04,0.74,0.08,1.11c0.23-3.64,0.89-7.06,1.86-10.25
	c0.27-0.88,0.57-1.74,0.88-2.58c0.04-0.12,0.09-0.24,0.13-0.37c0.3-0.8,0.62-1.58,0.96-2.34c0.06-0.14,0.13-0.29,0.19-0.43
	c0.34-0.76,0.69-1.5,1.06-2.22c0.06-0.11,0.12-0.22,0.17-0.33c0.78-1.51,1.63-2.95,2.5-4.31c0.07-0.1,0.13-0.2,0.19-0.3
	c0.33-0.51,0.67-1,1.02-1.49c0.09-0.13,0.17-0.27,0.26-0.39c0.08-0.11,0.16-0.23,0.24-0.34c0.43-0.6,0.87-1.19,1.31-1.75
	c0.07-0.09,0.14-0.18,0.21-0.27c0.46-0.58,0.92-1.15,1.38-1.69l0.02-0.03c0.58-0.68,1.16-1.34,1.73-1.96
	c0.42-0.46,0.84-0.89,1.25-1.32c0.15-0.16,0.32-0.32,0.48-0.48c0.99-0.99,1.94-1.89,2.82-2.68c2.66-2.38,4.73-3.85,5.45-4.34
	c-0.43,0.11-0.94,0.24-1.5,0.4C166.55,179.63,165.57,179.93,164.48,180.3"/>
<path class="st7" d="M232.48,154.69c0,0-0.03-0.3-0.13-0.74c-0.42-1.69-2.09-5.68-8.67-5.05c-6.88,0.66-9.19,6.21-9.78,8.11
	c-0.12,0.39-0.17,0.64-0.17,0.64l0.19,0.16c0.87-0.74,2.54-0.65,4.05,0.3c0.69,0.44,1.24,0.99,1.62,1.57v0
	c0.58,0.9,0.74,1.86,0.33,2.58c-0.09,0.15-0.2,0.28-0.32,0.4c0,0,0.26,0.1,0.71,0.23c1.91,0.56,7.21,1.68,10.08-2.03
	c0.14-0.18,0.28-0.34,0.41-0.54c-0.56-0.29-0.88-1.12-0.88-2.1c0-0.47,0.06-0.98,0.21-1.48
	C230.58,155.18,231.64,154.26,232.48,154.69"/>
<path class="st7" d="M198.37,205.22c-4.45,0.92-8.35,1.6-11.37,2.09c0.17,0.02,0.33,0.04,0.5,0.06c5.05,0.63,13.09,1.39,22.82,0.79
	c17.69-1.08,40.98-6.65,62.13-25.72l0.06-0.07v-0.03c0.07-1.6-0.14-4.48-2.16-6.73c-0.35-0.39-0.76-0.76-1.23-1.11
	c-0.08-0.05-0.15-0.1-0.23-0.14c-0.56-0.31-1.04-0.63-1.49-0.94c-0.37-0.24-0.73-0.47-1.04-0.7l-0.05-0.07
	c-1.3,1.87-2.81,3.65-4.49,5.34c-0.6,0.6-1.23,1.17-1.87,1.75c-5.84,5.26-13.37,9.63-21.51,13.24
	C224.91,198.98,209.8,202.87,198.37,205.22"/>
<path class="st7" d="M86.37,174.4c-0.19,0.17-0.39,0.34-0.57,0.53l-0.2,0.22c-0.21,0.24-0.42,0.48-0.61,0.75l-0.1,0.13
	c-0.24,0.33-0.46,0.68-0.67,1.03v0l-0.03,0.05l0,0l-0.09,0.16c-0.05,0.09-0.09,0.17-0.14,0.26c-0.12,0.22-0.25,0.44-0.36,0.66
	l-0.01,0.01l0,0.01l-0.01,0.02l-0.04,0.08l-0.04,0.08c-0.17,0.35-0.32,0.7-0.47,1.05c-0.41,0.97-0.73,1.9-0.97,2.68
	c-0.08,0.28-0.16,0.54-0.22,0.77c-0.14,0.5-0.24,0.89-0.28,1.08l0,0.02l-0.03,0.13v0v0l0.01-0.15c0.02-0.3,0.05-0.59,0.07-0.89
	c0.05-0.62,0.09-1.25,0.15-1.86c0.05-0.52,0.13-1.03,0.21-1.54c0.02-0.16,0.05-0.32,0.07-0.48c0.03-0.24,0.06-0.48,0.1-0.71
	c0.03-0.22,0.08-0.44,0.12-0.65l0-0.02v0l0.05-0.24l0.01-0.07c0.05-0.26,0.1-0.53,0.15-0.8c0.02-0.1,0.04-0.21,0.06-0.31l0.04-0.18
	l0.01-0.03c0.02-0.09,0.04-0.17,0.06-0.26c0.02-0.11,0.05-0.21,0.07-0.32c0.09-0.39,0.18-0.77,0.27-1.15l0.02-0.06
	c0.07-0.29,0.13-0.57,0.2-0.85l0-0.01l0.01-0.02l0.02-0.08c0.15-0.58,0.32-1.15,0.48-1.72l0.09-0.31c0.03-0.11,0.06-0.22,0.09-0.32
	c0.28-0.93,0.57-1.84,0.88-2.73l0.04-0.11c0.27-0.76,0.54-1.51,0.82-2.24l0.03-0.08c0.13-0.32,0.26-0.63,0.39-0.95l0.02-0.05
	c0.19-0.48,0.39-0.96,0.58-1.42l0,0v0l0-0.01l0.02-0.06c0.05-0.12,0.18-0.4,0.37-0.81l0-0.01l0.03-0.06v0
	c0.07-0.16,0.15-0.32,0.22-0.49c0.12-0.26,0.24-0.52,0.35-0.78l0.11-0.23c-0.17-0.09-0.34-0.17-0.51-0.26l-0.1-0.05L87,160.62
	c-1.1-0.53-2.27-0.95-3.47-1.27l-0.19-0.05c-0.77-0.19-1.56-0.34-2.37-0.43c-0.47-0.05-0.93-0.1-1.41-0.11
	c-0.39-0.02-0.79-0.02-1.19-0.01c-0.6,0.01-1.19,0.06-1.77,0.13c-0.19,0.02-0.37,0.06-0.54,0.08c-0.29,0.04-0.57,0.1-0.86,0.15
	c-0.11,0.02-0.23,0.04-0.34,0.06c-0.2,0.04-0.4,0.09-0.6,0.14c-0.39,0.1-0.77,0.2-1.15,0.32c-0.18,0.06-0.35,0.1-0.52,0.16
	c-0.51,0.18-1.02,0.38-1.51,0.59c-0.2,0.09-0.38,0.19-0.57,0.28c-0.22,0.11-0.45,0.23-0.67,0.34l-0.23,0.12
	c-0.24,0.13-0.48,0.28-0.72,0.42c-0.22,0.13-0.44,0.28-0.65,0.42c-0.26,0.17-0.51,0.35-0.76,0.53c-0.15,0.12-0.3,0.24-0.45,0.35
	c-0.4,0.32-0.78,0.66-1.16,1.01c-0.19,0.18-0.38,0.37-0.57,0.55c-0.33,0.33-0.65,0.66-0.95,1.01l-0.15,0.17
	c-0.16,0.19-0.31,0.39-0.45,0.59l-0.02,0.03l-0.02,0.03c-0.1,0.13-0.21,0.26-0.31,0.4l-0.04,0.05l-0.04,0.05l0,0l0,0
	c-0.61,0.85-1.14,1.75-1.6,2.7c-0.07,0.13-0.13,0.27-0.19,0.41c-0.22,0.46-0.41,0.93-0.59,1.41c-0.07,0.19-0.15,0.37-0.21,0.57l0,0
	v0c0.04,0.12,0.08,0.24,0.12,0.36c0.13,0.43,0.26,0.84,0.41,1.24l0.05,0.14l0.05,0.14c0.15,0.41,0.3,0.81,0.46,1.2
	c0.48,1.18,0.98,2.24,1.48,3.18c0.08,0.14,0.15,0.28,0.22,0.41l0.05,0.1l0.07,0.12c0.38,0.67,0.74,1.26,1.08,1.77
	c0.54,0.82,1.02,1.44,1.36,1.86c0.07,0.09,0.14,0.17,0.2,0.24c0.05,0.06,0.1,0.11,0.14,0.16c0.13,0.15,0.21,0.23,0.21,0.24
	c-0.05-0.21-0.07-0.42-0.12-0.63c-0.31-1.51-0.47-3-0.51-4.46l0-0.09l0-0.17c-0.02-0.93,0-1.86,0.07-2.76h0
	c0.1,0.35,0.2,0.68,0.3,1.01c0.16,0.5,0.32,0.98,0.49,1.45l0.06,0.17l0.02,0.06c0.74,1.99,1.57,3.66,2.36,5.01
	c0.94,1.62,1.8,2.76,2.31,3.39c0.1,0.13,0.19,0.23,0.27,0.32c0.15,0.17,0.23,0.26,0.23,0.26c-0.37-1.6-0.56-3.19-0.62-4.74
	c-0.02-0.52-0.04-1.05-0.03-1.56c0.01-0.66,0.04-1.3,0.1-1.94v0v0c0.29,1.09,0.61,2.1,0.97,3.05l0.02,0.07
	c1.26,3.42,2.82,5.93,3.89,7.42l0.12,0.16c0.19,0.25,0.35,0.47,0.5,0.66c0.1,0.13,0.2,0.25,0.28,0.34c0.1,0.13,0.18,0.22,0.25,0.29
	c0.08,0.09,0.13,0.15,0.13,0.15l-0.04-0.22c-0.05-0.22-0.09-0.45-0.14-0.67c-0.15-0.8-0.26-1.6-0.33-2.38
	c-0.05-0.53-0.1-1.05-0.12-1.57c-0.02-0.49-0.02-0.98-0.01-1.47c0-0.09,0.01-0.17,0.01-0.26c0.01-0.25,0.01-0.5,0.03-0.75l0.01-0.15
	l0.01-0.11c0.04-0.64,0.09-1.27,0.17-1.89v0v0c0.12,0.41,0.25,0.81,0.38,1.2c0.1,0.3,0.2,0.58,0.31,0.86l0.02,0.06l0.03,0.1
	l0.06,0.17c0.13,0.34,0.26,0.66,0.39,0.98c0.25,0.6,0.51,1.17,0.77,1.7c0.32,0.65,0.64,1.26,0.95,1.81c0.18,0.31,0.35,0.6,0.52,0.88
	c0.22,0.35,0.43,0.68,0.63,0.98c0.18,0.27,0.36,0.52,0.52,0.74c0.04,0.06,0.08,0.11,0.12,0.17c0.15,0.21,0.3,0.4,0.43,0.56
	c0.1,0.12,0.19,0.24,0.27,0.33c0.21,0.26,0.36,0.43,0.43,0.5l0.04,0.04l0.13,0.09c0.01-0.11,0.03-0.22,0.04-0.34
	c0.12-0.99,0.26-2,0.41-2.99c0.02-0.12,0.04-0.24,0.05-0.36c0.17-1.12,0.35-2.24,0.54-3.31c0.02-0.14,0.05-0.28,0.07-0.41l0.01-0.07
	c0.02-0.12,0.04-0.25,0.07-0.37c0.03-0.19,0.06-0.37,0.1-0.55c0.15-0.85,0.31-1.68,0.47-2.46c0.14-0.71,0.28-1.38,0.41-2.01
	l0.04-0.2c0.02-0.1,0.04-0.19,0.06-0.28c0.02-0.09,0.04-0.19,0.06-0.28l0.01-0.03c0.03-0.16,0.07-0.32,0.1-0.47l0.01-0.04
	c0.03-0.15,0.06-0.27,0.09-0.41c0.05-0.22,0.09-0.44,0.14-0.64l0.01-0.06c0.04-0.16,0.07-0.33,0.11-0.48
	c0.05-0.22,0.1-0.41,0.13-0.6l0-0.01l0,0c0.02-0.11,0.05-0.2,0.07-0.3l0-0.02c0.02-0.09,0.04-0.18,0.06-0.26
	c0.05-0.2,0.09-0.38,0.12-0.52l0.03-0.12l0.01-0.04l0.03-0.15l0.02-0.1l0-0.01l-0.02,0.01L86.37,174.4z"/>
<path class="st7" d="M229.58,223.84c1.67-0.58,3.12-1.04,4.25-1.54c2.26-0.96,3.47-1.61,3.4-1.85c-0.08-0.24-1.44-0.06-3.84,0.48
	c-1.2,0.28-2.66,0.53-4.33,0.9c-0.83,0.2-1.75,0.31-2.7,0.5c-0.96,0.17-1.97,0.38-3.03,0.49c-2.1,0.3-4.51,0.57-7.06,0.87
	c-1.26,0.1-2.56,0.21-3.89,0.32c-1.35,0.07-2.73,0.14-4.15,0.21c-5.68,0.17-11.95-0.09-18.33-1.26c-3.36-0.59-7.86-2.12-11.1-3.96
	l-0.12-0.07c1.91-6.75,8.94-7.71,8.94-7.71l-0.2-0.06c-0.12-0.01-0.24-0.03-0.35-0.04c-1.02-0.13-1.92-0.25-2.69-0.35
	c-0.55-0.07-1.03-0.14-1.44-0.19c-0.39-0.05-0.67-0.08-0.84-0.09c-4.24-0.29-6.56,3.3-7.36,4.85c-0.11,0.22-0.22,0.45-0.33,0.69
	c-0.61,1.39-1.02,3-1.13,4.7c-0.21,3.17,0.61,6.65,3.04,9.62c1.62,2,4.44,3.76,8.1,5.16c-3.19-2.02-5.99-5.85-6.2-11.98
	c3.61,1.55,7.82,2.5,10.98,3.07c6.77,1.25,13.31,1.4,19.18,1.04c1.47-0.12,2.9-0.23,4.28-0.37c1.39-0.18,2.74-0.35,4.04-0.52
	c2.54-0.43,4.89-0.84,7.09-1.33c1.1-0.21,2.12-0.51,3.08-0.77C227.83,224.35,228.74,224.14,229.58,223.84"/>
<path class="st0" d="M223.96,144.85c3.54,0.08,5.94,1.21,7.54,2.84c0.39-1.58,0.58-3.46,0.46-5.51c-0.14-2.24-0.6-4.26-1.27-5.84
	c-0.24-0.9-1.64-3.48-3.41-3.33c-2.28,0.14-3.87,4.46-3.56,9.66C223.75,143.42,223.84,144.15,223.96,144.85"/>
<path class="st0" d="M229.93,158.25c0,0.98,0.32,1.81,0.88,2.1c0.85,0.42,1.9-0.5,2.37-2.06c0.04-0.14,0.07-0.27,0.1-0.41v0
	c0.3-1.41-0.01-2.78-0.77-3.17c-0.84-0.43-1.9,0.5-2.37,2.05C230,157.27,229.93,157.78,229.93,158.25"/>
<path class="st0" d="M213.87,160.76c0.37,0.61,0.94,1.2,1.66,1.66c1.53,0.97,3.22,1.05,4.09,0.27c0.13-0.11,0.24-0.25,0.32-0.4
	c0.41-0.72,0.25-1.68-0.33-2.58l0,0c-0.38-0.58-0.93-1.13-1.62-1.57c-1.51-0.96-3.17-1.05-4.05-0.3c-0.14,0.12-0.27,0.26-0.37,0.43
	C213.19,158.95,213.33,159.88,213.87,160.76L213.87,160.76z"/>
<path class="st0" d="M272.52,182.38v-0.03l-0.1,0.14c0.01-0.01,0.03-0.02,0.04-0.04L272.52,182.38z"/>
<path class="st0" d="M270.69,215.18l-0.08,0.08c-2.15,2.05-4.67,4.04-7.44,5.93c-12.16,8.31-29.18,14.75-41.24,16.36l-0.05,0.01
	l-0.05,0.01c-9.06,1.44-17.94,1.69-25.68,0.73c-4.45-0.55-8.45-1.52-11.76-2.78c-3.65-1.39-6.48-3.16-8.1-5.16
	c-2.43-2.96-3.25-6.45-3.04-9.62c0.11-1.7,0.52-3.31,1.13-4.7c0.1-0.24,0.21-0.47,0.32-0.69c0.8-1.56,3.12-5.14,7.36-4.85
	c0.16,0.01,0.44,0.04,0.83,0.09c0.41,0.05,0.89,0.12,1.44,0.19c0.77,0.1,1.67,0.23,2.69,0.35c0.12,0.02,0.24,0.03,0.35,0.04
	c11.67,1.42,22.9,1.27,33.57-0.37c15.48-2.37,29.79-7.89,42.49-16.5c0.67-0.45,1.34-0.92,2-1.39l6.96-10.42
	c-21.13,19.04-44.41,24.6-62.09,25.68c-9.73,0.59-17.77-0.16-22.82-0.79c-0.18-0.02-0.33-0.04-0.51-0.07
	c-1.51-0.19-2.75-0.37-3.63-0.48c-0.44-0.06-0.8-0.09-1.06-0.11c-1.32-0.09-2.59,0.07-3.76,0.44c-2.41,0.75-4.46,2.38-6.01,4.53
	c-1.91,2.66-3.03,6.11-3.09,9.72c-0.04,2.97,0.65,6.04,2.25,8.86c0.06,0.11,0.12,0.23,0.19,0.34c0.18,0.31,0.38,0.61,0.59,0.91
	c0.28,0.41,0.57,0.81,0.9,1.21c3.7,4.57,11.67,7.97,22.31,9.29c7.19,0.89,15.61,0.82,24.75-0.47c26.91-4.86,39.71-13.56,45.61-19.67
	c0.43-0.45,0.83-0.88,1.19-1.3c2.12-2.44,3.07-4.32,3.42-5.13l0.05-0.11c0.09-0.21,0.12-0.32,0.13-0.33L270.69,215.18z"/>
<path class="st8" d="M185.04,121.85c-0.85-0.46-1.77-0.79-2.71-1.02c-0.62-0.15-1.24-0.26-1.85-0.34c-0.23-0.03-0.46-0.05-0.69-0.07
	c-3.15-0.28-5.87,0.26-5.87,0.26c-0.58,0.13-1.14,0.28-1.69,0.45c-4.28,1.3-7.26,3.53-9.34,6.1c-1.69,2.08-2.78,4.39-3.48,6.61
	c-0.06,0.2-0.12,0.39-0.17,0.58c-0.16,0.58-0.31,1.14-0.43,1.7c-0.39,1.87-0.55,3.6-0.59,4.96c-0.05,1.87,0.09,3.07,0.09,3.07
	c0.74-1.63,1.52-3.13,2.33-4.53c1.99-3.47,4.15-6.27,6.34-8.52c4.26-4.38,8.59-6.69,11.95-7.9
	C182.55,121.89,185.04,121.85,185.04,121.85"/>
<path class="st8" d="M236.16,115.75l-0.14-0.19c-0.48-0.61-1.06-1.17-1.75-1.64c-1.62-1.12-3.87-1.7-6.98-1.06
	c0,0-3.69,0.87-5.85,3.29c0,0,6.43-2.75,13.24,2.09c0.62,0.44,1.24,0.95,1.86,1.53c0.63,0.59,1.27,1.24,1.9,1.98
	c0,0-0.27-2.97-1.96-5.52C236.39,116.06,236.27,115.91,236.16,115.75"/>
<path class="st0" d="M185.82,162.85c2.47-0.76,5.14-1.47,8-2.11c0.5-2.23,0.62-4.98,0.27-7.93c-0.81-6.9-3.93-12.19-6.95-11.82
	c-3.03,0.37-4.81,6.27-4,13.17C183.55,157.64,184.54,160.71,185.82,162.85"/>
<path class="st9" d="M171.79,8.37l-6.34,1.43l1.33,11.63l-16.91-8.61l-6.96,2.08l0.11,0.12l20.54,23.41l0.2-0.12l0.26-0.17
	c0.64-0.41,1.28-0.81,1.92-1.21c0.23-0.14,0.45-0.29,0.68-0.43c0.93-0.57,1.86-1.13,2.8-1.69l-8.72-9.99l14.12,6.9l0.05-0.03
	c0.43-0.23,0.85-0.47,1.27-0.7l-1.3-10.08l6.4,7.41l0.08-0.04c0.54-0.27,1.07-0.53,1.61-0.8l0.17-0.08l0.26-0.13
	c0.09-0.04,0.18-0.09,0.27-0.14c0.23-0.11,0.46-0.23,0.68-0.34c0.05-0.02,0.09-0.04,0.14-0.06c0.76-0.37,1.51-0.72,2.25-1.07
	L171.79,8.37z"/>
<path class="st5" d="M165.49,10.17l-0.04-0.37L165.49,10.17L165.49,10.17z"/>
<path class="st5" d="M165.45,9.8l0.94-0.21c-1.55-0.72-3.4-1.23-5.53-1.5c-4.28-0.54-9.71-0.04-15.89,1.56
	c-6.19,1.59-13.12,4.26-20.48,7.92c-14.71,7.32-31.09,18.61-46.85,32.98C72.13,55.57,67,60.69,62.28,65.83l19.14,23.45
	c5.17-5.71,10.81-11.38,16.89-16.92c8.13-7.41,16.42-14.02,24.61-19.77c7.94-5.56,15.78-10.28,23.33-14.1l-3.33-14.97l0.09-8.48
	l-0.11-0.12l6.96-2.08l13.59,6.95l-0.39-4.74L165.45,9.8z"/>
<path class="st1" d="M165.45,9.8l-2.37,5.25l0.39,4.74l3.31,1.65L165.45,9.8z"/>
<path class="st1" d="M160.7,24.82l14.12,6.9l-5.39,3.09L160.7,24.82z"/>
<path class="st1" d="M174.83,20.92l1.3,10.08l5.1-2.67L174.83,20.92z"/>
<path class="st6" d="M228.24,17.19c0.87-0.03,1.72-0.04,2.56-0.03c2.38,0.05,4.61,0.33,6.72,0.86c0.11,0.03,0.23,0.05,0.34,0.08
	l0.03,0.01l0.08,0.02l0.21,0.06l0.19,0.06c-0.25-0.17-0.5-0.32-0.76-0.47c-2.37-0.91-4.88-1.5-7.47-1.83
	c-12.81-1.65-27.4,3.02-35.74,6.33c-0.46,0.19-0.92,0.38-1.38,0.58c-0.7,0.3-1.41,0.6-2.12,0.92c-1.2,0.53-2.42,1.08-3.66,1.66
	c-0.18,0.08-0.36,0.17-0.54,0.25c-0.75,0.35-1.49,0.7-2.25,1.07c-0.05,0.02-0.09,0.04-0.14,0.06c-0.22,0.11-0.46,0.23-0.68,0.34
	c-0.09,0.05-0.18,0.09-0.27,0.14l-0.26,0.13l-0.17,0.08c-0.53,0.26-1.06,0.52-1.61,0.8l-0.08,0.04c-0.02,0.01-0.03,0.02-0.05,0.03
	c-0.13,0.06-0.26,0.13-0.39,0.19l-0.07,0.03c-0.1,0.05-0.2,0.1-0.29,0.15c-0.83,0.42-1.66,0.86-2.48,1.29
	c-0.58,0.3-1.15,0.61-1.73,0.92l-0.09,0.05c-0.42,0.23-0.85,0.46-1.27,0.7l-0.05,0.03c-1.38,0.76-2.75,1.54-4.12,2.34
	c-0.14,0.08-0.29,0.16-0.43,0.25c-0.12,0.07-0.24,0.14-0.36,0.21c-0.11,0.07-0.22,0.14-0.33,0.2l-0.14,0.09
	c-0.94,0.56-1.87,1.12-2.8,1.69c-0.23,0.14-0.45,0.28-0.68,0.43c-0.65,0.4-1.29,0.81-1.92,1.21l-0.26,0.17l-0.2,0.12
	c-1.78,1.14-3.55,2.31-5.3,3.51c-2.9,1.97-5.77,4.01-8.59,6.12c-0.37,0.27-0.73,0.55-1.1,0.83c-7.41,5.58-14.57,11.57-21.43,17.78
	c-7.24,6.57-14.14,13.39-20.66,20.25c-3.53,3.54-6.56,6.71-9.04,9.37c-4.96,5.35-7.67,8.65-7.56,8.73c0.04,0.05,0.48-0.36,1.26-1.13
	c-0.64,0.74-1.28,1.49-1.91,2.23c10.82-11.54,22.82-23.35,35.71-34.49c7.83-6.76,15.98-13.26,24.39-19.29v0
	c3.69-2.65,7.42-5.2,11.21-7.64c1.21-0.78,2.43-1.56,3.65-2.32c0.61-0.38,1.22-0.75,1.83-1.12c0.34-0.21,0.69-0.43,1.04-0.63
	c0.65-0.39,1.31-0.78,1.96-1.17c0.64-0.38,1.28-0.76,1.93-1.13c0.34-0.19,0.67-0.39,1.01-0.58c0.82-0.47,1.64-0.93,2.46-1.38
	c0.49-0.27,0.98-0.55,1.47-0.81l0,0c1.55-0.85,3.11-1.66,4.68-2.47c0.13-0.07,0.26-0.13,0.39-0.2c0.24-0.13,0.49-0.25,0.73-0.37
	c0.32-0.16,0.65-0.33,0.97-0.5c0.12-0.06,0.24-0.13,0.37-0.19l0.05-0.02c0.22-0.11,0.44-0.21,0.66-0.32
	c0.05-0.02,0.09-0.04,0.14-0.07l0.08-0.04c0.69-0.33,1.37-0.66,2.04-0.99c0.12-0.06,0.25-0.12,0.37-0.18
	c0.22-0.11,0.43-0.2,0.65-0.31c0.78-0.37,1.57-0.74,2.34-1.09c0.21-0.1,0.43-0.2,0.64-0.3c0.11-0.05,0.22-0.1,0.33-0.15
	c0.22-0.1,0.44-0.2,0.66-0.3c0.91-0.41,1.81-0.81,2.69-1.2c0.81-0.35,1.59-0.67,2.38-1.01c4.46-1.87,8.65-3.45,12.54-4.7
	C216.11,18.75,222.57,17.43,228.24,17.19"/>
</svg>
