<?xml version="1.0" encoding="utf-8"?>
<!-- Generator: Adobe Illustrator 27.5.0, SVG Export Plug-In . SVG Version: 6.00 Build 0)  -->
<svg version="1.1" id="Layer_1" xmlns="http://www.w3.org/2000/svg" xmlns:xlink="http://www.w3.org/1999/xlink" x="0px" y="0px"
	 viewBox="0 0 300 300" style="enable-background:new 0 0 300 300;" xml:space="preserve">
<style type="text/css">
	.st0{fill:#F15F3E;}
	.st1{fill:#EF3D4B;}
</style>
<path class="st0" d="M25.32,19.08c6.75-1.67,13.73-2.24,20.66-1.69c42.02,0.05,84.02,0.05,126,0c14.59-0.3,27.93,8.21,33.8,21.57
	c7.41,18.09-1.25,38.77-19.35,46.18c-4.58,1.88-9.51,2.77-14.46,2.62c-45.24-0.05-90.47-0.05-135.71,0
	C17.94,88.19,2.32,74.56,0.26,56.35C-1.67,39.46,8.95,23.66,25.32,19.08z"/>
<path class="st0" d="M255.38,18.83c17.84-4.65,36.3,5.02,42.64,22.32c6.35,17.95-3.07,37.65-21.02,44c-0.19,0.07-0.39,0.14-0.59,0.2
	c-18.4,6.76-38.8-2.68-45.56-21.08c-0.98-2.66-1.63-5.43-1.95-8.25C227.14,38.74,238.47,22.83,255.38,18.83z"/>
<path class="st0" d="M117.32,118.46c6.84-1.14,13.78-1.53,20.7-1.19c42.09,0.1,84.2,0,126.29,0.08
	c19.24-0.43,35.19,14.81,35.62,34.05c0.43,19.24-14.81,35.19-34.05,35.62c-0.57,0.01-1.15,0.01-1.72,0c-46.13,0-92.26,0.1-138.39,0
	c-17.81-0.1-32.59-13.8-34.03-31.55C90.07,138.53,100.89,122.87,117.32,118.46z"/>
<path class="st0" d="M27.18,214.19c4.68-0.71,9.41-0.99,14.14-0.85c44.43,0.17,88.85-0.08,133.26,0.12
	c19.28,0.45,34.55,16.44,34.1,35.72c-0.01,0.25-0.01,0.5-0.03,0.75c-1.14,18.27-16.03,32.66-34.33,33.18
	c-46.81,0.05-93.62,0.05-140.43,0c-19.25-0.53-34.42-16.57-33.89-35.82c0.44-15.91,11.6-29.51,27.13-33.03L27.18,214.19z"/>
<path class="st0" d="M253.01,214.99c18.03-5.89,37.55,3.19,44.66,20.78c6.58,18.44-3.04,38.73-21.49,45.3
	c-18.44,6.58-38.73-3.04-45.3-21.49c-1.38-3.86-2.07-7.92-2.06-12.02C228.84,232.58,238.66,219.35,253.01,214.99z"/>
<path class="st1" d="M25.28,118.11c18.84-5.69,38.73,4.96,44.42,23.8c5.69,18.84-4.96,38.73-23.8,44.42
	c-15.8,4.77-32.81-1.92-41.11-16.19c-9.84-17.15-3.92-39.04,13.23-48.88C20.31,119.95,22.75,118.89,25.28,118.11z"/>
</svg>
